<svg width="2270" height="548" viewBox="0 0 2270 548" fill="none" xmlns="http://www.w3.org/2000/svg">
<path d="M1992.02 456.337C2007.35 430.573 2005.53 397.339 1994.08 369.627C1982.64 341.915 1962.71 318.656 1942.43 296.567C1915.63 267.362 1886.79 238.653 1850.79 222.072C1800.61 198.964 1742.5 202.05 1687.9 210.391C1590.93 225.207 1496.81 255.011 1405.3 290.352C1307.22 328.235 1207.23 373.421 1102.23 368C1008 363.138 943.494 317.403 875.163 258.383C811.434 203.338 758.584 132.172 679.671 96.355C576.126 49.3559 449.111 74.4769 357.551 141.911C265.991 209.345 206.699 313.365 173.061 421.989" stroke="url(#paint0_linear_12_142)" stroke-width="0.837254" stroke-miterlimit="10"/>
<path d="M2000.89 444.92C2014.83 422.671 2010.56 393.004 1997.29 367.023C1984.06 341.116 1963.39 318.468 1942.17 297.694C1914.24 270.346 1884.58 242.759 1847.64 227.255C1795.14 205.214 1734.45 207.614 1677.76 214.924C1581.16 227.376 1487.58 255.427 1396.83 288.605C1300.29 323.897 1202.26 367.394 1099.06 361.315C1004.92 355.769 939.176 311.573 870.172 255.668C805.612 203.607 751.837 137.24 673.632 104.542C571.361 61.7809 447.019 88.0976 355.758 154.354C264.117 220.754 203.282 320.16 167.568 426.011" stroke="url(#paint1_linear_12_142)" stroke-width="0.837254" stroke-miterlimit="10"/>
<path d="M2009.76 433.503C2022.3 414.77 2015.65 388.745 2000.5 364.423C1985.53 340.384 1964.09 318.285 1941.91 298.83C1912.85 273.346 1882.34 246.894 1844.48 232.441C1789.62 211.493 1726.43 213.211 1667.63 219.457C1571.45 229.671 1478.38 255.844 1388.35 286.858C1293.37 319.576 1197.28 361.35 1095.89 354.625C1001.83 348.384 934.975 305.579 865.176 252.952C799.907 203.738 745.124 142.315 667.592 112.729C566.637 74.2057 444.926 101.718 353.965 166.801C262.239 232.168 199.859 326.956 162.072 430.038" stroke="url(#paint2_linear_12_142)" stroke-width="0.837254" stroke-miterlimit="10"/>
<path d="M2018.63 422.086C2029.78 406.869 2020.81 384.557 2003.71 361.819C1987.07 339.694 1964.8 318.105 1941.64 299.962C1911.49 276.342 1880.08 251.05 1841.33 237.624C1784.07 217.785 1718.44 218.833 1657.5 223.985C1561.77 232.075 1469.2 256.261 1379.87 285.106C1286.49 315.262 1192.31 355.289 1092.72 347.935C998.752 340.995 930.712 299.669 860.188 250.232C794.139 203.931 738.452 147.382 661.557 120.911C561.955 86.6175 442.838 115.339 352.176 179.239C260.369 243.568 196.446 333.743 156.584 434.052" stroke="url(#paint3_linear_12_142)" stroke-width="0.837254" stroke-miterlimit="10"/>
<path d="M2027.5 410.669C2037.25 398.967 2026.05 380.414 2006.92 359.215C1988.7 339.028 1965.53 317.925 1941.37 301.093C1910.15 279.338 1877.8 255.228 1838.18 242.81C1778.5 224.106 1710.48 224.493 1647.37 228.518C1552.13 234.591 1460.04 256.69 1371.4 283.355C1279.63 310.961 1187.33 349.208 1089.55 341.241C995.661 333.593 926.431 293.752 855.196 247.512C788.359 204.125 731.81 152.453 655.517 129.089C557.315 99.0167 440.745 128.951 350.383 191.674C258.495 254.977 193.028 340.535 151.092 438.075" stroke="url(#paint4_linear_12_142)" stroke-width="0.837254" stroke-miterlimit="10"/>
<path d="M2036.37 399.252C2044.73 391.07 2031.39 376.296 2010.13 356.615C1990.42 338.37 1966.28 317.745 1941.11 302.225C1908.84 282.326 1875.5 259.426 1835.03 247.993C1772.91 230.448 1702.53 230.182 1637.24 233.046C1542.52 237.204 1450.91 257.119 1362.92 281.603C1272.78 306.685 1182.34 343.109 1086.38 334.551C992.566 326.186 922.147 287.842 850.204 244.796C782.571 204.327 725.206 157.52 649.482 137.276C552.721 111.407 438.792 142.772 348.594 204.12C256.756 266.583 189.61 347.326 145.6 442.093" stroke="url(#paint5_linear_12_142)" stroke-width="0.837254" stroke-miterlimit="10"/>
<path d="M2045.24 387.836C2052.2 383.169 2036.82 372.177 2013.34 354.011C1992.24 337.687 1967.04 317.557 1940.84 303.357C1907.55 285.309 1873.2 263.646 1831.88 253.18C1767.3 236.825 1694.6 235.91 1627.1 237.584C1532.92 239.917 1441.8 257.569 1354.44 279.861C1265.97 302.434 1177.36 337.003 1083.21 327.87C989.471 318.777 917.85 281.941 845.212 242.085C776.773 204.534 718.643 162.583 643.442 145.467C548.168 123.781 436.72 156.431 346.8 216.568C254.903 278.026 186.192 354.118 140.107 446.116" stroke="url(#paint6_linear_12_142)" stroke-width="0.837254" stroke-miterlimit="10"/>
<path d="M2054.11 376.419C2059.67 375.268 2042.33 368.033 2016.55 351.411C1994.14 336.965 1967.82 317.369 1940.58 304.493C1906.27 288.284 1870.89 267.891 1828.72 258.367C1761.68 243.226 1686.69 241.674 1616.97 242.117C1523.34 242.71 1432.71 258.027 1345.96 278.114C1259.17 298.205 1172.37 330.875 1080.03 321.18C986.372 311.346 913.544 276.036 840.216 239.369C770.968 204.74 712.114 167.628 637.398 153.654C543.662 136.121 434.64 170.085 345.003 229.015C253.042 289.473 182.765 360.918 134.607 450.143" stroke="url(#paint7_linear_12_142)" stroke-width="0.837254" stroke-miterlimit="10"/>
<path d="M2062.98 365.002C2067.15 367.367 2047.92 363.838 2019.76 348.807C1996.11 336.188 1968.62 317.16 1940.31 305.62C1905.02 291.234 1868.56 272.143 1825.57 263.545C1756.05 249.644 1678.79 247.468 1606.84 246.641C1513.78 245.573 1423.66 258.494 1337.49 276.354C1252.41 293.991 1167.4 324.718 1076.88 314.482C983.285 303.897 909.244 270.127 835.237 236.641C765.167 204.938 705.643 172.64 631.375 161.824C539.218 148.406 432.577 183.718 343.227 241.441C251.189 300.902 179.356 367.705 129.123 454.158" stroke="url(#paint8_linear_12_142)" stroke-width="0.837254" stroke-miterlimit="10"/>
<path d="M2071.85 353.586C2074.62 359.47 2053.56 359.577 2022.97 346.208C1998.13 335.353 1969.42 316.947 1940.04 306.757C1903.77 294.175 1866.23 276.426 1822.42 268.736C1750.4 256.1 1670.89 253.312 1596.7 251.178C1504.22 248.517 1414.62 258.989 1329.01 274.611C1245.66 289.82 1162.4 318.557 1073.7 307.797C980.181 296.45 904.922 264.239 830.241 233.929C759.345 205.153 699.193 177.643 625.331 170.015C534.799 160.667 430.493 197.369 341.425 253.893C249.328 312.337 175.934 374.497 123.631 458.181" stroke="url(#paint9_linear_12_142)" stroke-width="0.837254" stroke-miterlimit="10"/>
<path d="M2080.72 342.169C2082.1 351.568 2059.24 355.239 2026.18 343.603C2000.18 334.45 1970.24 316.716 1939.78 307.888C1902.55 297.095 1863.91 280.716 1819.27 273.918C1744.76 262.572 1663 259.189 1586.57 255.706C1494.67 251.518 1405.62 259.497 1320.53 272.86C1238.94 285.677 1157.42 312.375 1070.53 301.106C977.082 288.989 900.6 258.35 825.249 231.209C753.519 205.372 692.781 182.604 619.292 178.197C530.426 172.867 428.413 211.01 339.632 266.331C247.462 323.763 172.516 381.284 118.134 462.194" stroke="url(#paint10_linear_12_142)" stroke-width="0.837254" stroke-miterlimit="10"/>
<path d="M2089.59 330.752C2089.57 343.667 2064.94 350.826 2029.39 341.003C2002.24 333.498 1971.06 316.473 1939.52 309.02C1901.33 299.998 1861.57 285.024 1816.12 279.105C1739.11 269.074 1655.11 265.112 1576.44 260.243C1485.11 254.587 1396.63 260.038 1312.05 271.117C1232.23 281.572 1152.44 306.18 1067.36 294.425C973.978 281.52 896.265 252.478 820.257 228.502C747.688 205.608 686.406 187.54 613.256 186.393C526.094 185.026 426.333 224.66 337.843 278.782C245.601 335.201 169.102 388.084 112.646 466.226" stroke="url(#paint11_linear_12_142)" stroke-width="0.837254" stroke-miterlimit="10"/>
<path d="M2098.46 319.335C2097.05 335.765 2070.64 346.341 2032.6 338.399C2004.3 332.49 1971.88 316.212 1939.25 310.151C1900.11 302.88 1859.24 289.347 1812.96 284.287C1733.45 275.596 1647.22 271.072 1566.31 264.771C1475.56 257.701 1387.67 260.6 1303.58 269.365C1225.55 277.495 1147.46 299.96 1064.2 287.73C970.878 274.021 891.931 246.602 815.27 225.777C741.854 205.834 680.06 192.412 607.221 194.566C521.791 197.096 424.249 238.288 336.053 291.216C243.735 346.622 165.684 394.87 107.154 470.243" stroke="url(#paint12_linear_12_142)" stroke-width="0.837254" stroke-miterlimit="10"/>
<path d="M2107.33 307.919C2104.52 327.865 2076.33 341.79 2035.81 335.799C2006.35 331.442 1972.71 315.941 1938.99 311.287C1898.9 305.751 1856.9 293.685 1809.81 289.478C1727.79 282.149 1639.33 277.084 1556.18 269.308C1466.01 260.879 1378.73 261.2 1295.1 267.618C1218.89 273.47 1142.47 293.728 1061.03 281.045C967.774 266.52 887.583 240.744 810.278 223.066C736.011 206.084 673.73 197.248 601.181 202.758C517.509 209.113 422.16 251.927 334.26 303.663C241.861 358.049 162.266 401.662 101.662 474.263" stroke="url(#paint13_linear_12_142)" stroke-width="0.837254" stroke-miterlimit="10"/>
<path d="M2116.2 296.502C2112 319.967 2081.99 337.18 2039.02 333.195C2008.38 330.355 1973.53 315.652 1938.72 312.415C1897.68 308.599 1854.56 298.025 1806.66 294.656C1722.14 288.709 1631.44 283.124 1546.05 273.832C1456.45 264.085 1369.82 261.824 1286.63 265.862C1212.25 269.473 1137.5 287.47 1057.86 274.347C964.679 258.992 883.241 234.885 805.29 220.337C730.168 206.323 667.417 202.007 595.15 210.932C513.247 221.046 420.076 265.547 332.475 316.098C240 369.458 158.852 408.449 96.1777 478.276" stroke="url(#paint14_linear_12_142)" stroke-width="0.837254" stroke-miterlimit="10"/>
<path d="M2125.07 285.085C2119.47 312.066 2087.64 332.521 2042.23 330.595C2010.4 329.243 1974.36 315.354 1938.45 313.551C1896.46 311.44 1852.23 302.387 1803.51 299.843C1716.48 295.303 1623.54 289.215 1535.91 278.365C1446.88 267.342 1360.91 262.499 1278.14 264.115C1205.61 265.531 1132.51 281.205 1054.68 267.661C961.57 251.456 878.886 229.043 800.294 217.626C724.317 206.589 661.104 206.725 589.106 219.123C508.977 232.916 417.979 279.18 330.678 328.545C238.117 380.88 155.43 415.245 90.6772 482.303" stroke="url(#paint15_linear_12_142)" stroke-width="0.837254" stroke-miterlimit="10"/>
<path d="M2133.94 273.669C2126.94 304.165 2093.27 327.824 2045.44 327.992C2012.39 328.107 1975.18 315.045 1938.19 314.683C1895.24 314.264 1849.9 306.754 1800.36 305.031C1710.83 301.914 1615.63 295.353 1525.78 282.903C1437.31 270.642 1352.02 263.225 1269.67 262.373C1198.98 261.64 1127.53 274.927 1051.51 260.981C958.475 243.909 874.535 223.218 795.302 214.919C718.47 206.867 654.791 211.389 583.066 227.314C504.706 244.719 415.887 292.814 328.885 340.997C236.244 392.298 152.012 422.041 85.1893 486.327" stroke="url(#paint16_linear_12_142)" stroke-width="0.837254" stroke-miterlimit="10"/>
<path d="M2142.8 262.252C2134.41 296.264 2098.87 323.093 2048.65 325.392C2014.36 326.962 1976 314.722 1937.92 315.815C1894.01 317.075 1847.56 311.128 1797.2 310.213C1705.17 308.537 1607.71 301.528 1515.65 287.431C1427.73 273.966 1343.13 263.992 1261.19 260.618C1192.37 257.786 1122.56 268.619 1048.35 254.282C955.383 236.327 870.188 217.388 790.315 212.191C712.623 207.136 648.468 215.96 577.035 235.488C500.431 256.43 413.798 306.422 327.1 353.427C234.369 403.703 148.598 428.824 79.7011 490.341" stroke="url(#paint17_linear_12_142)" stroke-width="0.837254" stroke-miterlimit="10"/>
<path d="M2151.67 250.835C2141.89 288.366 2104.44 318.337 2051.86 322.787C2016.31 325.796 1976.81 314.387 1937.66 316.946C1892.78 319.878 1845.23 315.515 1794.05 315.399C1699.52 315.185 1599.78 307.752 1505.51 291.963C1418.13 277.327 1334.25 264.817 1252.71 258.87C1185.75 253.985 1117.59 262.298 1045.18 247.596C952.287 228.732 865.837 211.575 785.319 209.478C706.772 207.43 642.112 220.489 570.991 243.679C496.113 268.094 411.693 320.047 325.303 365.873C232.483 415.112 145.176 435.624 74.2005 494.367" stroke="url(#paint18_linear_12_142)" stroke-width="0.837254" stroke-miterlimit="10"/>
<path d="M2160.55 239.418C2149.37 280.465 2109.99 313.565 2055.08 320.188C2018.25 324.631 1977.62 314.052 1937.39 318.082C1891.55 322.677 1842.91 319.911 1790.9 320.586C1693.89 321.85 1591.84 314.019 1495.39 296.496C1408.54 280.719 1325.37 265.705 1244.24 257.123C1179.14 250.24 1112.62 255.966 1042.01 240.907C949.208 221.116 861.499 205.771 780.335 206.759C700.934 207.725 635.735 224.948 564.96 251.862C491.779 279.692 409.6 333.66 323.518 378.316C230.609 426.513 141.762 442.415 68.7167 498.39" stroke="url(#paint19_linear_12_142)" stroke-width="0.837254" stroke-miterlimit="10"/>
<path d="M2169.42 228.001C2156.84 272.564 2115.51 308.775 2058.28 317.583C2020.17 323.452 1978.42 313.7 1937.13 319.213C1890.3 325.463 1840.58 324.305 1787.75 325.772C1688.25 328.527 1583.88 320.327 1485.25 301.028C1398.92 284.135 1316.48 266.651 1235.76 255.375C1172.52 246.54 1107.65 249.611 1038.84 234.22C946.12 213.479 857.148 199.978 775.339 204.047C695.087 208.036 629.307 229.356 558.92 260.048C487.394 291.24 407.499 347.272 321.72 390.759C228.718 437.913 138.34 449.206 63.2161 502.408" stroke="url(#paint20_linear_12_142)" stroke-width="0.837254" stroke-miterlimit="10"/>
<path d="M2178.29 216.584C2164.31 264.662 2121.01 303.978 2061.49 314.983C2022.06 322.274 1979.21 313.353 1936.86 320.345C1889.05 328.245 1838.26 328.709 1784.59 330.955C1682.61 335.218 1575.9 326.678 1475.12 305.561C1389.29 287.576 1307.57 267.665 1227.28 253.628C1165.89 242.891 1102.69 243.245 1035.67 227.535C943.049 205.822 852.814 194.19 770.352 201.331C689.253 208.355 622.837 233.71 552.885 268.235C482.966 302.746 405.398 360.88 319.931 403.206C226.836 449.31 134.926 456.002 57.7281 506.435" stroke="url(#paint21_linear_12_142)" stroke-width="0.837254" stroke-miterlimit="10"/>
<path d="M2187.15 205.168C2171.79 256.761 2126.5 299.173 2064.7 312.379C2023.95 321.092 1980 312.993 1936.6 321.477C1887.79 331.019 1835.93 333.121 1781.44 336.138C1676.98 341.925 1567.91 333.075 1464.99 310.09C1379.65 291.035 1298.64 268.746 1218.81 251.873C1159.24 239.284 1097.74 236.853 1032.5 220.837C939.977 198.123 848.476 188.403 765.36 198.607C683.419 208.667 616.308 238.01 546.849 276.413C478.489 314.207 403.297 374.476 318.142 415.64C224.949 460.69 131.508 462.79 52.2399 510.45" stroke="url(#paint22_linear_12_142)" stroke-width="0.837254" stroke-miterlimit="10"/>
<path d="M2196.02 193.751C2179.26 248.865 2131.96 294.364 2067.91 309.78C2025.81 319.911 1980.78 312.633 1936.33 322.613C1886.51 333.797 1833.61 337.542 1778.29 341.329C1671.35 348.649 1559.9 339.519 1454.85 314.627C1369.99 294.519 1289.68 269.912 1210.32 250.131C1152.56 235.732 1092.79 230.458 1029.33 214.156C936.914 190.412 844.142 182.632 760.364 195.896C677.585 209.004 609.716 242.286 540.805 284.604C473.948 325.66 401.188 388.08 316.345 428.092C223.054 472.087 128.086 469.59 46.7394 514.481" stroke="url(#paint23_linear_12_142)" stroke-width="0.837254" stroke-miterlimit="10"/>
<path d="M2204.89 182.334C2186.74 240.963 2137.41 289.554 2071.12 307.176C2027.67 318.728 1981.55 312.265 1936.06 323.74C1885.25 336.563 1831.3 341.958 1775.14 346.507C1665.74 355.372 1551.88 345.995 1444.72 319.151C1360.33 298.011 1280.68 271.131 1201.85 248.375C1145.86 232.213 1087.85 224.033 1026.16 207.457C933.868 182.653 839.82 176.852 755.376 193.171C671.764 209.327 603.078 246.524 534.77 292.778C469.357 337.075 399.082 401.663 314.556 440.522C221.167 483.454 124.668 476.368 41.2513 518.487" stroke="url(#paint24_linear_12_142)" stroke-width="0.837254" stroke-miterlimit="10"/>
<path d="M2213.76 170.918C2194.21 233.062 2142.85 284.741 2074.33 304.576C2029.52 317.547 1982.32 311.901 1935.8 324.877C1883.96 339.333 1828.99 346.383 1771.99 351.698C1660.12 362.121 1543.83 352.527 1434.59 323.689C1350.65 301.529 1271.63 272.439 1193.38 246.632C1139.13 228.741 1082.91 217.608 1022.99 200.776C930.833 174.883 835.503 171.098 750.388 190.464C665.951 209.676 596.373 250.755 528.739 300.974C464.716 348.508 396.981 415.264 312.771 452.978C219.28 494.843 121.259 483.173 35.7634 522.522" stroke="url(#paint25_linear_12_142)" stroke-width="0.837254" stroke-miterlimit="10"/>
<path d="M2222.63 159.501C2201.68 225.161 2148.27 279.927 2077.54 301.972C2031.36 316.365 1983.09 311.528 1935.53 326.008C1882.68 342.098 1826.68 350.811 1768.83 356.881C1654.51 368.873 1535.76 359.091 1424.45 328.221C1340.95 305.058 1262.51 273.818 1184.89 244.885C1132.35 225.297 1077.98 211.162 1019.82 194.09C927.803 167.075 831.186 165.339 745.388 187.748C660.129 210.02 589.6 254.968 522.691 309.16C460.004 359.931 394.863 428.855 310.969 465.42C217.377 506.215 117.832 489.968 30.2627 526.545" stroke="url(#paint26_linear_12_142)" stroke-width="0.837254" stroke-miterlimit="10"/>
<path d="M2231.5 148.085C2209.16 217.26 2153.69 275.118 2080.75 299.372C2033.18 315.192 1983.85 311.156 1935.27 327.14C1881.39 344.864 1824.38 355.245 1765.68 362.063C1648.91 375.635 1527.67 365.694 1414.33 332.75C1331.24 308.597 1253.34 275.257 1176.42 243.13C1125.53 221.876 1073.06 204.695 1016.65 187.393C924.802 159.216 826.882 159.569 740.401 185.025C654.329 210.357 582.782 259.165 516.655 317.339C455.25 371.356 392.754 442.43 309.18 477.855C215.486 517.57 114.415 496.752 24.7748 530.555" stroke="url(#paint27_linear_12_142)" stroke-width="0.837254" stroke-miterlimit="10"/>
<path d="M2240.38 136.667C2216.63 209.362 2159.09 270.304 2083.96 296.768C2035.01 314.01 1984.62 310.784 1935 328.271C1880.1 347.629 1822.07 359.677 1762.53 367.25C1643.32 382.408 1519.55 372.347 1404.19 337.282C1321.51 312.152 1244.09 276.766 1167.94 241.382C1118.66 218.483 1068.14 198.219 1013.49 180.707C921.813 151.332 822.585 153.818 735.413 182.308C648.533 210.705 575.913 263.375 510.624 325.521C450.454 382.797 390.585 455.85 307.395 490.298C213.523 528.758 111.005 503.543 19.2866 534.578" stroke="url(#paint28_linear_12_142)" stroke-width="0.837254" stroke-miterlimit="10"/>
<path d="M2249.24 125.251C2224.11 201.461 2164.49 265.495 2087.17 294.168C2036.83 312.841 1985.37 310.411 1934.74 329.408C1878.79 350.395 1819.77 364.119 1759.38 372.437C1637.72 389.19 1511.41 379.038 1394.06 341.815C1311.76 315.711 1234.75 278.331 1159.46 239.635C1111.74 215.108 1063.24 191.731 1010.31 174.017C918.845 143.402 818.344 148.222 730.421 179.593C642.792 211.217 568.986 267.594 504.584 333.708C445.604 394.256 388.492 469.471 305.602 502.741C211.648 540.167 107.583 510.335 13.7943 538.6" stroke="url(#paint29_linear_12_142)" stroke-width="0.837254" stroke-miterlimit="10"/>
<path d="M2258.11 113.834C2231.58 193.56 2169.88 260.69 2090.38 291.564C2038.63 311.663 1986.08 309.951 1934.47 330.535C1877.45 353.06 1817.5 368.664 1756.23 377.619C1632.17 396.198 1503.25 385.762 1383.93 346.343C1302.01 319.279 1225.33 279.938 1150.99 237.884C1104.77 211.732 1058.35 185.226 1007.15 167.327C915.902 135.43 814.031 142.388 725.433 176.873C636.983 211.486 562.022 271.821 498.549 341.89C440.716 405.735 386.404 483.091 303.809 515.183C209.775 551.572 104.165 517.13 8.30219 542.623" stroke="url(#paint30_linear_12_142)" stroke-width="0.837254" stroke-miterlimit="10"/>
<path d="M2266.98 102.417C2239.05 185.659 2175.26 255.885 2093.59 288.964C2040.44 310.494 1986.86 309.667 1934.2 331.671C1876.18 355.922 1815.18 373.005 1753.07 382.806C1626.55 402.775 1495.06 392.528 1373.8 350.881C1292.23 322.864 1215.81 281.595 1142.51 236.137C1097.73 208.366 1053.48 178.713 1003.98 160.641C912.984 127.412 809.718 136.558 720.441 174.161C631.165 211.764 555.015 276.069 492.513 350.082C435.791 417.244 384.315 496.716 302.02 527.63C207.9 562.985 100.751 523.926 2.80994 546.645" stroke="url(#paint31_linear_12_142)" stroke-width="0.837254" stroke-miterlimit="10"/>
<path d="M1890.3 369.344C1879.91 263.707 1831.19 162.256 1755.23 88.1018C1733.63 67.0035 1708.85 47.5293 1679.5 40.4247C1594.69 19.9018 1514.46 93.497 1449.77 137.346C1371.7 190.27 1294.79 245.194 1212.56 291.618C1166.4 317.682 1111.44 341.507 1061.99 322.401C1011.92 303.052 987.704 247.999 962.73 200.482C933.628 145.112 896.14 92.7916 845.452 56.1308C794.768 19.4742 729.492 -0.0714065 668.405 13.3994C620.569 23.9454 579.111 53.2837 541.79 85.0158C443.724 168.392 364.104 273.344 310.226 390.242" stroke="url(#paint32_linear_12_142)" stroke-width="0.837254" stroke-miterlimit="10"/>
<path d="M1892.46 364.497C1882.4 262.266 1832.77 166.283 1755.42 92.153C1733.83 71.4565 1709.33 52.1985 1680.39 44.9829C1596.6 24.0361 1517.41 94.0464 1452.88 136.388C1384.08 181.531 1316.14 228.989 1243.9 271.166C1235.02 276.37 1226.08 281.491 1217.09 286.511C1171.27 312.092 1116.98 335.562 1068.03 317.505C1018.44 299.229 993.901 246.426 968.648 200.898C939.148 147.879 901.567 97.7948 851.256 62.7731C800.815 27.8023 736.294 9.28253 675.871 22.5112C634.809 31.4936 598.402 54.0109 565.235 79.7095C560.098 83.6843 555.071 87.7673 550.064 91.8251C450.728 172.336 371.371 269.182 319.231 382.311" stroke="url(#paint33_linear_12_142)" stroke-width="0.837254" stroke-miterlimit="10"/>
<path d="M1894.61 359.651C1884.89 260.83 1834.37 170.307 1755.62 96.2088C1734.03 75.9056 1709.82 56.8764 1681.28 49.5457C1598.5 28.1749 1520.36 94.6046 1455.99 135.438C1387.86 178.648 1320.52 224.884 1248.22 266.371C1239.41 271.47 1230.54 276.49 1221.62 281.418C1176.15 306.516 1122.51 329.63 1074.07 312.621C1024.96 295.423 1000.09 244.865 974.557 201.332C944.659 150.668 906.99 102.811 857.047 69.4326C806.85 36.1434 743.088 18.6536 683.325 31.6444C642.63 40.4783 606.458 62.2785 573.445 87.0093C568.328 90.8333 563.338 94.7905 558.327 98.6557C457.665 176.31 378.629 265.045 328.224 374.402" stroke="url(#paint34_linear_12_142)" stroke-width="0.837254" stroke-miterlimit="10"/>
<path d="M1896.76 354.808C1887.37 259.393 1835.99 174.325 1755.81 100.264C1734.25 80.3499 1710.3 61.5496 1682.17 54.1079C1600.4 32.3131 1523.33 95.1663 1459.09 134.483C1391.66 175.764 1324.79 220.591 1252.55 261.575C1243.79 266.548 1235 271.488 1226.15 276.32C1181.03 300.934 1128.05 323.694 1080.11 307.737C1031.48 291.612 1006.37 243.254 980.474 201.765C950.279 153.388 912.508 107.696 862.851 76.0913C812.979 44.3535 749.889 28.0241 690.795 40.7769C650.468 49.4623 614.535 70.5497 581.667 94.3084C576.567 97.9816 571.618 101.813 566.605 105.486C464.568 180.284 385.9 260.904 337.237 366.493" stroke="url(#paint35_linear_12_142)" stroke-width="0.837254" stroke-miterlimit="10"/>
<path d="M1898.91 349.962C1889.86 257.956 1837.62 178.335 1756 104.315C1734.47 84.7862 1710.79 66.2189 1683.05 58.6662C1602.3 36.4433 1526.3 95.7199 1462.2 133.525C1395.46 172.88 1329.14 216.42 1256.87 256.775C1248.17 261.636 1239.45 266.483 1230.67 271.218C1185.9 295.353 1133.58 317.754 1086.15 302.845C1038 287.793 1012.58 241.664 986.379 202.186C955.815 156.138 917.951 112.658 868.642 82.7338C819.039 52.6356 756.683 37.3782 698.249 49.8889C658.289 58.4259 622.591 78.8003 589.877 101.587C584.797 105.109 579.881 108.811 574.867 112.299C471.4 184.242 393.154 256.751 346.229 358.566" stroke="url(#paint36_linear_12_142)" stroke-width="0.837254" stroke-miterlimit="10"/>
<path d="M1901.06 345.116C1892.34 256.516 1839.26 182.337 1756.19 108.367C1734.69 89.2228 1711.27 70.8928 1683.94 63.2249C1604.21 40.578 1529.3 96.2821 1465.31 132.571C1399.29 170.014 1333.5 212.257 1261.2 251.976C1252.56 256.723 1243.92 261.478 1235.2 266.116C1190.79 289.769 1139.12 311.814 1092.19 297.957C1044.52 283.979 1018.8 240.078 992.297 202.616C961.364 158.893 923.399 117.628 874.442 89.3891C825.102 60.9306 763.48 46.7451 705.711 59.0179C666.119 67.4023 630.655 87.0637 598.092 108.883C593.027 112.254 588.144 115.83 583.133 119.126C478.182 188.204 400.412 252.606 355.226 350.649" stroke="url(#paint37_linear_12_142)" stroke-width="0.837254" stroke-miterlimit="10"/>
<path d="M1903.21 340.269C1894.83 255.076 1840.91 186.331 1756.38 112.423C1734.91 93.6552 1711.75 75.5666 1684.83 67.7878C1606.11 44.7169 1532.29 96.8527 1468.41 131.617C1403.12 167.151 1337.84 208.094 1265.53 247.181C1256.95 251.819 1248.37 256.473 1239.73 261.023C1195.66 284.192 1144.66 305.882 1098.23 293.074C1051.04 280.173 1025.01 238.497 998.206 203.05C966.9 161.653 928.838 122.606 880.237 96.0486C831.158 69.2298 770.278 56.1121 713.169 68.1512C673.948 76.3871 638.72 95.3356 606.306 116.183C601.262 119.403 596.407 122.845 591.404 125.957C484.917 192.163 407.679 248.47 364.227 342.74" stroke="url(#paint38_linear_12_142)" stroke-width="0.837254" stroke-miterlimit="10"/>
<path d="M1905.36 335.422C1897.32 253.639 1842.58 190.311 1756.57 116.473C1735.15 98.0827 1712.22 80.2943 1685.72 72.3458C1607.97 49.0144 1535.31 97.4224 1471.53 130.659C1406.98 164.296 1342.21 203.93 1269.86 242.382C1261.34 246.906 1252.84 251.468 1244.27 255.921C1200.55 278.611 1150.2 299.941 1104.27 288.181C1057.56 276.353 1031.23 236.902 1004.13 203.47C972.453 164.399 934.289 127.567 886.045 102.695C837.221 77.5198 777.088 65.47 720.643 77.2669C681.791 85.3543 646.839 103.657 614.533 123.461C609.509 126.539 604.678 129.842 599.683 132.77C491.607 196.088 414.949 244.311 373.236 334.813" stroke="url(#paint39_linear_12_142)" stroke-width="0.837254" stroke-miterlimit="10"/>
<path d="M1907.52 330.576C1899.81 252.198 1844.26 194.284 1756.76 120.525C1735.38 102.502 1712.7 84.9719 1686.61 76.8999C1609.86 53.1613 1538.33 97.9967 1474.63 129.7C1410.83 161.454 1346.57 199.775 1274.18 237.578C1265.73 241.993 1257.3 246.458 1248.79 250.815C1205.42 273.021 1155.73 293.997 1110.31 283.289C1064.08 272.535 1037.43 235.308 1010.04 203.895C977.981 167.145 939.72 132.541 891.836 109.341C843.268 85.8103 783.877 74.8282 728.097 86.3872C689.612 94.3262 654.899 111.92 622.743 130.748C617.739 133.679 612.929 136.844 607.949 139.587C498.225 199.992 422.208 240.162 382.233 326.891" stroke="url(#paint40_linear_12_142)" stroke-width="0.837254" stroke-miterlimit="10"/>
<path d="M1909.67 325.729C1902.29 250.762 1845.95 198.243 1756.95 124.576C1735.62 106.922 1713.18 89.6498 1687.5 81.4584C1611.76 57.3126 1541.37 98.5794 1477.74 128.742C1414.71 158.621 1350.93 195.616 1278.51 232.779C1270.12 237.084 1261.76 241.453 1253.32 245.713C1210.31 267.436 1161.27 288.057 1116.35 278.397C1070.6 268.72 1043.65 233.714 1015.95 204.321C983.517 169.891 945.155 137.511 897.64 115.992C849.319 94.1093 790.684 84.1908 735.563 95.5077C697.446 103.294 662.972 120.187 630.965 138.035C625.977 140.816 621.192 143.842 616.223 146.405C504.805 203.867 429.474 236.009 391.242 318.97" stroke="url(#paint41_linear_12_142)" stroke-width="0.837254" stroke-miterlimit="10"/>
<path d="M1911.82 320.887C1904.78 249.326 1847.66 202.199 1757.14 128.636C1735.87 111.346 1713.66 94.3323 1688.38 86.0257C1613.65 61.4686 1544.42 99.1835 1480.85 127.793C1418.6 155.813 1355.29 191.474 1282.84 227.984C1274.51 232.181 1266.21 236.452 1257.85 240.62C1215.18 261.864 1166.8 282.129 1122.39 273.518C1077.12 264.914 1049.85 232.128 1021.86 204.755C989.041 172.647 950.582 142.498 903.431 122.652C855.358 102.417 797.473 93.5622 743.017 104.641C705.267 112.279 671.033 128.464 639.171 145.335C634.204 147.965 629.434 150.853 624.481 153.241C511.315 207.731 436.728 231.877 400.23 311.065" stroke="url(#paint42_linear_12_142)" stroke-width="0.837254" stroke-miterlimit="10"/>
<path d="M1913.97 316.04C1907.26 247.884 1849.38 206.137 1757.34 132.687C1736.11 115.752 1714.14 99.0095 1689.28 90.5835C1615.56 65.615 1547.48 99.7863 1483.96 126.834C1422.5 153.004 1359.66 187.327 1287.16 223.184C1278.9 227.271 1270.67 231.447 1262.38 235.518C1220.06 256.278 1172.34 276.189 1128.43 268.625C1083.64 261.095 1056.05 230.534 1027.78 205.179C994.569 175.388 956.008 147.476 909.235 129.302C861.405 110.716 804.279 102.92 750.487 113.765C713.105 121.255 679.11 136.73 647.398 152.625C642.446 155.105 637.697 157.855 632.764 160.062C517.798 211.535 444.003 227.731 409.243 303.147" stroke="url(#paint43_linear_12_142)" stroke-width="0.837254" stroke-miterlimit="10"/>
<path d="M1916.12 311.194C1909.75 246.449 1851.11 210.06 1757.53 136.739C1736.36 120.16 1714.63 103.684 1690.16 95.1427C1617.45 69.7587 1550.55 100.403 1487.06 125.88C1426.42 150.221 1364.03 183.19 1291.49 218.39C1283.29 222.368 1275.13 226.446 1266.91 230.421C1224.94 250.698 1177.88 270.161 1134.46 263.742C1090.17 257.193 1062.24 228.949 1033.69 205.614C1000.08 178.144 961.427 152.468 915.026 135.958C867.435 119.028 811.068 112.287 757.941 122.891C720.926 130.232 687.166 144.999 655.604 159.917C650.672 162.25 645.935 164.85 641.022 166.885C524.215 215.295 451.253 223.583 418.232 295.23" stroke="url(#paint44_linear_12_142)" stroke-width="0.837254" stroke-miterlimit="10"/>
<path d="M1918.27 306.347C1912.24 245.008 1852.86 213.969 1757.72 140.79C1736.62 124.562 1715.11 108.357 1691.05 99.7006C1619.35 73.901 1553.64 101.031 1490.18 124.922C1430.35 147.445 1368.41 179.047 1295.82 213.585C1287.69 217.455 1279.59 221.436 1271.44 225.314C1229.82 245.113 1183.43 264.212 1140.51 258.845C1096.7 253.366 1068.43 227.35 1039.61 206.03C1005.6 180.882 966.853 157.441 920.834 142.6C873.478 127.326 817.878 121.641 765.411 132.006C728.764 139.195 695.239 153.257 663.831 167.2C658.915 169.381 654.189 171.834 649.301 173.702C530.606 218.995 458.524 219.433 427.241 287.308" stroke="url(#paint45_linear_12_142)" stroke-width="0.837254" stroke-miterlimit="10"/>
<path d="M1920.42 301.501C1914.72 243.571 1854.62 217.861 1757.91 144.845C1736.87 128.969 1715.59 113.034 1691.94 104.263C1621.25 78.0435 1556.74 101.676 1493.28 123.967C1434.28 144.69 1372.78 174.917 1300.15 208.79C1292.07 212.554 1284.05 216.435 1275.97 220.22C1234.7 239.536 1188.96 258.276 1146.55 253.961C1103.21 249.555 1074.62 225.764 1045.52 206.463C1011.11 183.636 972.263 162.44 926.625 149.259C879.499 135.646 824.672 131.012 772.865 141.139C736.585 148.179 703.295 161.533 672.037 174.499C667.141 176.53 662.427 178.836 657.563 180.532C536.942 222.645 465.782 215.292 436.233 279.398" stroke="url(#paint46_linear_12_142)" stroke-width="0.837254" stroke-miterlimit="10"/>
<path d="M1922.58 296.654C1917.21 242.13 1856.39 221.74 1758.1 148.897C1737.14 133.363 1716.07 117.704 1692.83 108.821C1623.15 82.1819 1559.85 102.337 1496.39 123.013C1438.24 141.956 1377.16 170.791 1304.47 203.995C1296.47 207.649 1288.51 211.434 1280.5 215.122C1239.58 233.954 1194.5 252.335 1152.59 249.077C1109.74 245.74 1080.8 224.182 1051.44 206.896C1016.61 186.395 977.681 167.443 932.429 155.918C885.534 143.974 831.474 140.382 780.335 150.267C744.424 157.159 711.368 169.804 680.264 181.79C675.384 183.67 670.677 185.822 665.842 187.354C543.261 226.225 473.053 211.147 445.246 271.48" stroke="url(#paint47_linear_12_142)" stroke-width="0.837254" stroke-miterlimit="10"/>
<path d="M1924.73 291.808C1919.7 240.694 1858.17 225.6 1758.29 152.948C1737.4 137.753 1716.55 122.378 1693.72 113.38C1625.04 86.321 1562.97 103.02 1499.5 122.055C1442.19 139.24 1381.54 166.666 1308.8 199.191C1300.86 202.741 1292.97 206.421 1285.03 210.017C1244.45 228.37 1200.03 246.391 1158.62 244.181C1116.25 241.918 1086.97 222.593 1057.34 207.314C1022.1 189.142 983.083 172.435 938.22 162.557C891.552 152.282 838.267 149.728 787.789 159.38C752.249 166.119 719.424 178.055 688.47 189.069C683.606 190.798 678.911 192.795 674.1 194.168C549.53 229.717 480.302 206.99 454.235 263.554" stroke="url(#paint48_linear_12_142)" stroke-width="0.837254" stroke-miterlimit="10"/>
<path d="M1926.88 286.961C1922.19 239.253 1859.97 229.446 1758.48 157C1737.67 142.143 1717.03 127.047 1694.61 117.934C1626.95 90.4472 1566.11 103.716 1502.61 121.093C1446.17 136.54 1385.92 162.54 1313.13 194.388C1305.25 197.833 1297.43 201.411 1289.56 204.911C1249.33 222.781 1205.56 240.447 1164.67 239.289C1122.77 238.103 1093.15 221.011 1063.27 207.739C1027.6 191.901 988.497 177.438 944.024 169.208C897.578 160.611 845.069 159.091 795.255 168.505C760.083 175.095 727.493 186.318 696.692 196.36C691.844 197.939 687.157 199.776 682.378 200.99C555.794 233.142 487.577 202.845 463.244 255.637" stroke="url(#paint49_linear_12_142)" stroke-width="0.837254" stroke-miterlimit="10"/>
<path d="M1929.03 282.119C1924.67 237.817 1861.78 233.271 1758.67 161.06C1737.93 146.538 1717.51 131.725 1695.49 122.502C1628.85 94.5906 1569.24 104.449 1505.71 120.147C1450.14 133.878 1390.31 158.44 1317.45 189.597C1309.64 192.937 1301.88 196.415 1294.09 199.822C1254.21 217.208 1211.09 234.52 1170.71 234.41C1129.29 234.297 1099.31 219.447 1069.17 208.177C1033.08 194.682 993.903 182.463 949.82 175.872C903.595 168.961 851.866 168.467 802.717 177.638C767.912 184.08 735.553 194.59 704.911 203.66C700.083 205.088 695.399 206.762 690.649 207.821C562.032 236.492 494.84 198.704 472.245 247.728" stroke="url(#paint50_linear_12_142)" stroke-width="0.837254" stroke-miterlimit="10"/>
<path d="M1931.18 277.273C1927.16 236.381 1863.6 237.08 1758.86 165.111C1738.2 150.915 1718 136.395 1696.38 127.06C1630.75 98.7164 1572.39 105.198 1508.82 119.189C1454.13 131.224 1394.69 154.331 1321.78 184.798C1314.04 188.033 1306.35 191.41 1298.62 194.72C1259.09 211.627 1216.63 228.579 1176.75 229.518C1135.8 230.483 1105.48 217.874 1075.09 208.598C1038.57 197.454 999.309 187.475 955.619 182.518C909.617 177.297 858.664 177.825 810.179 186.758C775.742 193.052 743.617 202.845 713.125 210.947C708.313 212.224 703.641 213.735 698.915 214.643C568.258 239.746 502.098 194.559 481.241 239.81" stroke="url(#paint51_linear_12_142)" stroke-width="0.837254" stroke-miterlimit="10"/>
<path d="M1933.33 272.426C1929.64 234.94 1865.44 240.862 1759.05 169.162C1738.47 155.292 1718.48 141.064 1697.26 131.618C1632.65 102.846 1575.54 105.977 1511.93 118.23C1458.11 128.594 1399.08 150.226 1326.1 179.998C1318.43 183.128 1310.8 186.404 1303.15 189.618C1263.97 206.042 1222.16 222.643 1182.79 224.63C1142.32 226.668 1111.65 216.317 1081 209.027C1044.05 200.238 1004.71 192.503 961.415 189.169C915.635 185.642 865.462 187.187 817.637 195.883C783.567 202.023 751.674 211.104 721.339 218.238C716.543 219.364 711.879 220.708 707.186 221.465C574.483 242.902 509.36 190.41 490.242 231.892" stroke="url(#paint52_linear_12_142)" stroke-width="0.837254" stroke-miterlimit="10"/>
<path d="M1935.48 267.579C1932.13 233.503 1867.28 244.629 1759.24 173.213C1738.75 159.67 1718.97 145.733 1698.16 136.176C1634.55 106.968 1578.69 106.785 1515.04 117.272C1462.11 125.99 1403.47 146.129 1330.43 175.194C1322.82 178.223 1315.26 181.395 1307.67 184.511C1268.85 200.452 1227.69 216.703 1188.83 219.733C1148.84 222.853 1117.81 214.757 1086.91 209.448C1049.54 203.026 1010.12 197.527 967.214 195.815C921.653 193.995 872.26 196.545 825.099 204.999C791.397 210.991 759.738 219.354 729.554 225.521C724.778 226.496 720.116 227.668 715.452 228.278C580.707 245.959 516.623 186.256 499.243 223.966" stroke="url(#paint53_linear_12_142)" stroke-width="0.837254" stroke-miterlimit="10"/>
<path d="M1937.63 262.733C1934.62 232.063 1869.14 248.37 1759.43 177.269C1739.03 164.043 1719.45 150.402 1699.04 140.739C1636.46 111.094 1581.85 107.631 1518.14 116.322C1466.09 123.42 1407.86 142.05 1334.76 170.403C1327.21 173.328 1319.72 176.398 1312.2 179.418C1273.72 194.88 1233.23 210.775 1194.87 214.854C1155.36 219.051 1123.98 213.217 1092.83 209.881C1055.02 205.835 1015.53 202.577 973.014 202.474C927.675 202.366 879.061 205.912 832.565 214.132C799.231 219.975 767.802 227.618 737.776 232.82C733.017 233.645 728.362 234.645 723.731 235.113C586.956 248.936 523.894 182.124 508.252 216.061" stroke="url(#paint54_linear_12_142)" stroke-width="0.837254" stroke-miterlimit="10"/>
<path d="M1939.79 257.886C1937.11 230.626 1871.01 252.086 1759.63 181.32C1739.31 168.412 1719.94 155.067 1699.93 145.297C1638.36 115.212 1585.01 108.506 1521.25 115.364C1470.09 120.866 1412.26 137.966 1339.09 165.604C1331.61 168.427 1324.18 171.393 1316.73 174.32C1278.61 189.299 1238.76 204.847 1200.91 209.965C1161.88 215.245 1130.15 211.678 1098.75 210.311C1060.51 208.645 1020.93 207.622 978.813 209.129C933.702 210.74 885.863 215.278 840.027 223.26C807.061 228.956 775.863 235.877 745.991 240.115C741.247 240.789 736.604 241.613 731.997 241.939C593.213 251.808 531.152 177.978 517.249 208.147" stroke="url(#paint55_linear_12_142)" stroke-width="0.837254" stroke-miterlimit="10"/>
<path d="M1941.94 253.04C1939.59 229.186 1872.89 255.781 1759.82 185.372C1739.58 172.773 1720.42 159.733 1700.82 149.856C1640.27 119.33 1588.16 109.419 1524.36 114.406C1474.07 118.338 1416.66 133.887 1343.41 160.801C1336 163.524 1328.64 166.384 1321.26 169.215C1283.49 183.71 1244.3 198.908 1206.95 205.07C1168.4 211.431 1136.32 210.139 1104.66 210.732C1066.01 211.455 1026.34 212.673 984.609 215.773C939.724 219.111 892.657 224.633 847.485 232.373C814.886 237.916 783.923 244.12 754.205 247.391C749.477 247.91 744.842 248.558 740.263 248.745C599.491 254.564 538.41 173.817 526.245 200.213" stroke="url(#paint56_linear_12_142)" stroke-width="0.837254" stroke-miterlimit="10"/>
<path d="M1944.09 248.197C1942.08 227.749 1874.79 259.455 1760.01 189.427C1739.87 177.138 1720.91 164.402 1701.71 154.414C1642.18 123.443 1591.31 110.369 1527.47 113.451C1478.05 115.838 1421.06 129.823 1347.74 156.005C1340.39 158.627 1333.1 161.378 1325.79 164.117C1288.36 178.133 1249.84 193.051 1212.98 200.186C1174.93 207.699 1142.49 208.615 1110.57 211.161C1071.5 214.281 1031.75 217.73 990.404 222.427C945.75 227.497 899.454 234 854.943 241.501C822.711 246.896 791.979 252.374 762.415 254.686C757.707 255.054 753.08 255.522 748.529 255.575C605.805 257.243 545.672 169.676 535.242 192.304" stroke="url(#paint57_linear_12_142)" stroke-width="0.837254" stroke-miterlimit="10"/>
<path d="M1946.24 243.351C1944.56 226.313 1876.69 263.1 1760.2 193.483C1740.14 181.498 1721.39 169.072 1702.6 158.977C1644.1 127.561 1594.44 111.362 1530.57 112.497C1482.02 113.36 1425.46 125.765 1352.06 151.206C1344.79 153.727 1337.55 156.373 1330.32 159.015C1293.24 172.548 1255.38 187.111 1219.02 195.294C1181.45 203.885 1148.68 207.084 1116.48 211.587C1077 217.107 1037.17 222.796 996.204 229.078C951.785 235.889 906.252 243.362 862.409 250.626C830.549 255.872 800.048 260.625 770.637 261.977C765.946 262.194 761.334 262.478 756.804 262.397C612.169 259.818 552.939 165.531 544.247 184.386" stroke="url(#paint58_linear_12_142)" stroke-width="0.837254" stroke-miterlimit="10"/>
<path d="M1948.39 238.504C1947.05 224.872 1878.61 266.715 1760.39 197.534C1740.43 185.855 1721.88 173.733 1703.49 163.535C1646.01 131.666 1597.56 112.387 1533.69 111.539C1485.99 110.907 1429.87 121.71 1356.4 146.407C1349.19 148.831 1342.02 151.368 1334.85 153.917C1298.13 166.967 1260.92 181.174 1225.07 190.41C1187.97 200.074 1154.87 205.565 1122.4 212.02C1082.52 219.945 1042.6 227.871 1002.01 235.733C957.832 244.292 913.058 252.725 869.875 259.75C838.383 264.848 808.116 268.875 778.86 269.268C774.184 269.33 769.588 269.434 765.079 269.219C618.579 262.304 560.205 161.382 553.256 176.468" stroke="url(#paint59_linear_12_142)" stroke-width="0.837254" stroke-miterlimit="10"/>
<path d="M1950.54 233.658C1949.54 223.436 1880.54 270.305 1760.58 201.586C1740.71 190.203 1722.38 178.364 1704.37 168.094C1647.99 135.674 1600.66 113.455 1536.79 110.585C1489.93 108.475 1434.27 117.668 1360.72 141.611C1353.58 143.935 1346.47 146.367 1339.38 148.82C1303 161.39 1266.46 175.238 1231.11 185.522C1194.49 196.26 1161.06 204.047 1128.32 212.445C1088.04 222.776 1048.03 232.945 1007.81 242.384C963.875 252.696 919.855 262.087 877.337 268.875C846.213 273.82 816.18 277.072 787.074 276.559C782.419 276.462 777.834 276.386 773.349 276.045C625.039 264.707 567.468 157.241 562.257 168.555" stroke="url(#paint60_linear_12_142)" stroke-width="0.837254" stroke-miterlimit="10"/>
<path d="M1952.69 228.811C1952.02 221.995 1882.48 273.866 1760.77 205.637C1741 194.551 1722.87 183.034 1705.26 172.652C1649.89 139.805 1603.75 114.565 1539.9 109.627C1493.85 106.064 1438.68 113.634 1365.05 136.808C1357.97 139.035 1350.94 141.357 1343.91 143.714C1307.88 155.801 1271.99 169.294 1237.14 180.626C1201.01 192.437 1167.26 202.52 1134.23 212.866C1093.56 225.606 1053.47 238.016 1013.6 249.031C969.923 261.099 926.649 271.446 884.791 277.996C854.034 282.792 824.237 285.331 795.284 283.846C790.645 283.599 786.08 283.338 781.611 282.863C631.544 267.017 574.726 153.088 571.249 160.633" stroke="url(#paint61_linear_12_142)" stroke-width="0.837254" stroke-miterlimit="10"/>
<path d="M1954.85 223.965C1954.51 220.559 1884.43 277.397 1760.97 209.693C1741.29 198.899 1723.36 187.712 1706.16 177.215C1651.8 143.943 1606.81 115.722 1543.02 108.673C1497.76 103.674 1443.12 109.705 1369.38 132.013C1362.38 134.151 1355.4 136.357 1348.45 138.616C1312.76 150.22 1277.53 163.358 1243.19 175.742C1207.54 188.631 1173.49 201.047 1140.15 213.3C1099.12 228.499 1058.94 243.178 1019.41 255.69C976.017 269.595 933.459 280.817 892.265 287.124C861.876 291.772 832.318 293.594 803.511 291.142C798.888 290.743 794.343 290.29 789.89 289.69C638.132 269.255 581.997 148.947 580.258 152.715" stroke="url(#paint62_linear_12_142)" stroke-width="0.837254" stroke-miterlimit="10"/>
<path d="M1957 219.118C1957 219.118 1886.39 280.895 1761.16 213.744C1635.93 146.593 1586.48 64.8684 1373.71 127.213C1160.93 189.559 975.41 317.996 811.726 298.429C648.042 278.861 589.259 144.798 589.259 144.798" stroke="url(#paint63_linear_12_142)" stroke-width="0.837254" stroke-miterlimit="10"/>
<path d="M2051.65 175.865C2038.71 141.643 2001.23 121.474 1964.72 119.012C1928.21 116.55 1892.37 128.598 1858.41 142.211C1788.16 170.357 1720.87 205.901 1649.18 230.128C1577.49 254.355 1499.22 266.866 1426.11 247.332C1381.16 235.324 1339.8 211.667 1294.37 201.654C1203.27 181.57 1110.46 218.329 1017.85 229.542C947.781 238.024 921.272 204.455 881.957 154.866C843.792 106.727 787.532 73.2896 727.005 62.7698C666.478 52.25 602.238 64.7495 550.067 97.1918" stroke="url(#paint64_linear_12_142)" stroke-width="0.837254" stroke-miterlimit="10"/>
<path d="M2052.95 171.031C2038.59 138.952 2000.31 120.026 1963.23 118.743C1926.08 117.499 1889.51 130.238 1854.62 144.128C1784.04 172.292 1715.99 206.995 1644.01 229.49C1572.3 252.085 1494.62 262.394 1421.47 242.861C1376.67 230.898 1335.28 208.028 1289.98 198.458C1199.2 179.264 1106.81 215.464 1014.58 226.583C944.918 234.983 917.365 202.504 877.499 154.09C839.093 107.158 783.295 74.0112 723.307 64.8492C663.444 55.5943 600.322 69.0256 548.632 101.453" stroke="url(#paint65_linear_12_142)" stroke-width="0.837254" stroke-miterlimit="10"/>
<path d="M2054.25 166.194C2038.48 136.261 1999.41 118.57 1961.74 118.467C1923.95 118.439 1886.67 131.864 1850.84 146.04C1779.91 174.223 1711.07 207.917 1638.85 228.843C1567.08 249.642 1490.04 257.91 1416.84 238.376C1372.2 226.463 1330.77 204.372 1285.6 195.249C1195.14 176.945 1103.18 212.586 1011.31 223.615C942.064 231.934 913.324 200.671 873.049 153.301C834.269 107.69 779.066 74.72 719.613 66.9115C660.41 58.9217 598.406 73.2848 547.202 105.697" stroke="url(#paint66_linear_12_142)" stroke-width="0.837254" stroke-miterlimit="10"/>
<path d="M2055.55 161.355C2038.36 133.565 1998.5 117.117 1960.24 118.193C1921.81 119.384 1883.81 133.499 1847.05 147.951C1775.79 176.153 1706.17 208.926 1633.68 228.196C1561.87 247.287 1485.44 253.429 1412.2 233.892C1367.71 222.023 1326.26 200.719 1281.21 192.044C1191.07 174.63 1099.54 209.708 1008.04 220.651C939.201 228.888 909.353 198.778 868.586 152.52C829.504 108.175 774.805 75.5918 715.906 68.986C657.351 62.4161 596.478 77.5604 545.759 109.957" stroke="url(#paint67_linear_12_142)" stroke-width="0.837254" stroke-miterlimit="10"/>
<path d="M2056.85 156.517C2038.25 130.873 1997.58 115.661 1958.75 117.921C1919.68 120.328 1880.96 135.13 1843.27 149.867C1771.66 178.088 1701.29 209.948 1628.52 227.553C1556.68 244.941 1480.85 248.948 1407.57 229.411C1363.23 217.588 1321.75 197.067 1276.84 188.839C1187.01 172.315 1095.9 206.834 1004.78 217.683C936.347 225.838 905.396 196.877 864.136 151.735C824.763 108.652 770.577 76.3548 712.213 71.0524C654.317 65.7935 594.566 81.8236 544.329 114.206" stroke="url(#paint68_linear_12_142)" stroke-width="0.837254" stroke-miterlimit="10"/>
<path d="M2058.15 151.684C2038.14 128.183 1996.67 114.214 1957.25 117.653C1917.55 121.278 1878.11 136.77 1839.48 151.789C1767.53 180.028 1696.39 210.975 1623.35 226.916C1551.48 242.604 1476.25 244.477 1402.92 224.936C1358.74 213.163 1317.22 193.425 1272.44 185.64C1182.95 170.006 1092.25 203.961 1001.5 214.725C933.48 222.798 901.43 194.99 859.674 150.96C820.01 109.138 766.336 77.1233 708.51 73.1325C651.279 69.1847 592.642 86.1005 542.891 118.472" stroke="url(#paint69_linear_12_142)" stroke-width="0.837254" stroke-miterlimit="10"/>
<path d="M2059.45 146.846C2038.03 125.491 1995.75 112.669 1955.77 117.38C1915.41 122.135 1875.26 138.405 1835.7 153.701C1763.41 181.958 1691.52 211.997 1618.19 226.273C1546.3 240.269 1471.67 239.997 1398.3 220.46C1354.27 208.731 1312.72 189.777 1268.07 182.439C1178.89 167.695 1088.62 201.092 998.239 211.761C930.63 219.753 897.489 193.093 855.228 150.179C815.282 109.619 762.116 77.8819 704.82 75.2071C648.253 72.566 590.735 90.376 541.465 122.728" stroke="url(#paint70_linear_12_142)" stroke-width="0.837254" stroke-miterlimit="10"/>
<path d="M2060.75 142.008C2037.91 122.796 1994.83 111.209 1954.27 117.107C1913.27 123.071 1872.41 140.035 1831.91 155.617C1759.28 183.892 1686.63 213.031 1613.02 225.63C1541.11 237.935 1467.07 235.52 1393.66 215.98C1349.78 204.296 1308.2 186.129 1263.68 179.234C1174.82 165.38 1084.98 198.218 994.966 208.797C927.767 216.707 893.544 191.196 850.765 149.395C810.546 110.092 757.879 78.6365 701.114 77.2733C645.215 75.9349 588.807 94.6391 540.022 126.98" stroke="url(#paint71_linear_12_142)" stroke-width="0.837254" stroke-miterlimit="10"/>
<path d="M2062.05 137.171C2037.8 120.105 1993.92 109.749 1952.78 116.835C1911.13 124.012 1869.53 141.583 1828.13 157.529C1755.1 185.669 1681.76 214.066 1607.86 224.984C1535.93 235.61 1462.48 231.04 1389.02 211.496C1345.3 199.858 1303.69 182.473 1259.3 176.03C1170.76 163.062 1081.34 195.34 991.698 205.83C924.909 213.663 889.603 189.296 846.311 148.611C805.822 110.561 753.655 79.3835 697.42 79.3446C642.189 79.3047 586.895 98.9073 538.587 131.233" stroke="url(#paint72_linear_12_142)" stroke-width="0.837254" stroke-miterlimit="10"/>
<path d="M2063.35 132.337C2037.69 117.414 1993.01 108.292 1951.29 116.566C1909 124.957 1866.67 143.214 1824.35 159.45C1750.97 187.6 1676.89 215.117 1602.7 224.345C1530.75 233.293 1457.89 226.564 1384.39 207.02C1340.82 195.431 1299.18 178.83 1254.92 172.829C1166.7 160.751 1077.69 192.471 988.426 202.871C922.046 210.622 885.666 187.399 841.853 147.834C801.098 111.038 749.427 80.1381 693.718 81.4194C639.16 82.6736 584.971 103.183 537.149 135.489" stroke="url(#paint73_linear_12_142)" stroke-width="0.837254" stroke-miterlimit="10"/>
<path d="M2064.65 127.499C2037.57 114.722 1992.09 106.832 1949.8 116.294C1906.86 125.897 1863.82 144.841 1820.57 161.366C1746.85 189.526 1672.03 216.168 1597.54 223.702C1525.58 230.984 1453.3 222.088 1379.75 202.544C1336.33 191.001 1294.67 175.182 1250.54 169.629C1162.64 158.441 1074.06 189.597 985.161 199.912C919.192 207.581 881.746 185.498 837.399 147.058C796.387 111.506 745.202 80.8889 690.019 83.4986C636.134 86.0429 583.055 107.459 535.714 139.755" stroke="url(#paint74_linear_12_142)" stroke-width="0.837254" stroke-miterlimit="10"/>
<path d="M2065.95 122.661C2037.46 112.027 1991.18 105.376 1948.3 116.021C1904.72 126.838 1860.97 146.472 1816.78 163.278C1742.72 191.453 1667.16 217.219 1592.37 223.06C1520.41 228.676 1448.71 217.608 1375.12 198.064C1331.85 186.566 1290.15 171.53 1246.15 166.424C1158.57 156.126 1070.42 186.724 981.893 196.944C916.333 204.531 877.826 183.585 832.944 146.274C791.679 111.966 740.982 81.6269 686.325 85.5651C633.112 89.3994 581.139 111.722 534.284 144.003" stroke="url(#paint75_linear_12_142)" stroke-width="0.837254" stroke-miterlimit="10"/>
<path d="M2067.25 117.823C2037.35 109.335 1990.26 103.923 1946.81 115.748C1902.58 127.782 1858.11 148.102 1813 165.194C1738.59 193.383 1662.29 218.283 1587.2 222.417C1515.23 226.379 1444.11 213.131 1370.48 193.583C1327.36 182.135 1285.63 167.882 1241.77 163.223C1154.5 153.816 1066.77 183.85 978.62 193.984C913.47 201.49 873.91 181.675 828.486 145.493C786.972 112.426 736.758 82.3646 682.623 87.6396C630.086 92.7556 579.219 115.998 532.845 148.263" stroke="url(#paint76_linear_12_142)" stroke-width="0.837254" stroke-miterlimit="10"/>
<path d="M2068.55 112.989C2037.24 106.648 1989.35 102.471 1945.32 115.48C1900.45 128.731 1855.26 149.738 1809.21 167.11C1734.47 195.318 1657.43 219.355 1582.04 221.774C1510.07 224.083 1439.52 208.651 1365.85 189.103C1322.89 177.7 1281.13 164.23 1237.39 160.019C1150.45 151.501 1063.14 180.976 975.356 191.016C910.616 198.441 870.002 179.753 824.036 144.709C782.282 112.878 732.542 83.0943 678.929 89.7063C627.069 96.1039 577.303 120.261 531.415 152.512" stroke="url(#paint77_linear_12_142)" stroke-width="0.837254" stroke-miterlimit="10"/>
<path d="M2069.85 108.151C2037.12 103.953 1988.43 101.019 1943.82 115.207C1898.32 129.68 1852.41 151.369 1805.43 169.027C1730.34 197.253 1652.57 220.432 1576.88 221.131C1504.9 221.799 1434.93 204.175 1361.21 184.623C1318.4 173.265 1276.61 160.583 1233 156.814C1146.38 149.187 1059.5 178.103 972.088 188.053C907.757 195.395 866.103 177.831 819.578 143.928C777.587 113.33 728.322 83.8241 675.226 91.7813C624.043 99.4521 575.379 124.533 529.976 156.768" stroke="url(#paint78_linear_12_142)" stroke-width="0.837254" stroke-miterlimit="10"/>
<path d="M2071.15 103.314C2037.01 101.262 1987.52 99.5676 1942.33 114.931C1896.18 130.621 1849.56 152.996 1801.65 170.939C1726.22 199.188 1647.71 221.512 1571.72 220.489C1499.73 219.52 1430.34 199.699 1356.58 180.148C1313.93 168.839 1272.1 156.935 1228.62 153.614C1142.32 146.876 1055.86 175.229 968.823 185.09C904.903 192.351 862.208 175.905 815.128 143.148C772.909 113.773 724.106 84.5499 671.537 93.8565C621.025 102.797 573.472 128.809 528.55 161.03" stroke="url(#paint79_linear_12_142)" stroke-width="0.837254" stroke-miterlimit="10"/>
<path d="M2072.44 98.4756C2036.9 98.5664 1986.61 98.1153 1940.84 114.658C1894.04 131.57 1846.7 154.63 1797.86 172.851C1722.1 201.118 1642.84 222.597 1566.55 219.842C1494.55 217.24 1425.75 195.214 1351.94 175.663C1309.44 164.4 1267.58 153.283 1224.24 150.409C1138.26 144.557 1052.22 172.355 965.551 182.126C902.04 189.305 858.313 173.971 810.669 142.368C768.223 114.212 719.881 85.2709 667.834 95.927C618 106.132 571.548 133.077 527.108 165.282" stroke="url(#paint80_linear_12_142)" stroke-width="0.837254" stroke-miterlimit="10"/>
<path d="M2073.75 93.6418C2036.78 95.8793 1985.7 96.6715 1939.34 114.389C1891.91 132.523 1843.85 156.27 1794.08 174.771C1717.97 203.061 1637.98 223.698 1561.39 219.204C1489.39 214.978 1421.16 190.742 1347.3 171.187C1304.96 159.969 1263.07 149.636 1219.85 147.209C1134.19 142.247 1048.57 169.482 962.279 179.163C899.182 186.26 854.422 172.028 806.207 141.583C763.54 114.638 715.653 85.9797 664.128 97.9978C614.97 109.463 569.624 137.344 525.665 169.538" stroke="url(#paint81_linear_12_142)" stroke-width="0.837254" stroke-miterlimit="10"/>
<path d="M2075.04 88.8045C2036.67 93.1845 1984.78 95.22 1937.85 114.117C1889.77 133.472 1841 157.905 1790.29 176.688C1713.85 205.005 1633.11 224.805 1556.22 218.561C1484.21 212.715 1416.56 186.262 1342.66 166.708C1300.47 155.539 1258.55 145.988 1215.47 144.005C1130.12 139.933 1044.93 166.609 959.006 176.2C896.319 183.215 850.535 170.081 801.748 140.803C758.862 115.065 711.428 86.689 660.429 100.069C611.943 112.791 567.703 141.617 524.23 173.791" stroke="url(#paint82_linear_12_142)" stroke-width="0.837254" stroke-miterlimit="10"/>
<path d="M2076.35 83.9667C2036.56 90.4933 1983.88 93.7722 1936.36 113.845C1887.65 134.426 1838.19 159.645 1786.51 178.601C1709.79 207.095 1628.26 225.91 1551.06 217.915C1479.05 210.457 1411.98 181.782 1338.03 162.228C1295.99 151.104 1254.05 142.337 1211.09 140.8C1126.07 137.618 1041.3 163.735 955.746 173.236C893.469 180.17 846.665 168.125 797.303 140.023C754.205 115.488 707.216 87.3936 656.74 102.144C608.926 116.114 565.796 145.888 522.804 178.048" stroke="url(#paint83_linear_12_142)" stroke-width="0.837254" stroke-miterlimit="10"/>
<path d="M2077.65 79.128C2036.45 87.7971 1983.01 92.4112 1934.87 113.571C1885.56 135.466 1835.34 161.275 1782.73 180.516C1705.66 209.029 1623.39 227.028 1545.89 217.275C1473.88 208.21 1407.38 177.305 1333.4 157.751C1291.51 146.672 1249.53 138.692 1206.7 137.603C1122 135.311 1037.65 160.865 952.473 170.276C890.606 177.128 842.787 166.165 792.844 139.246C749.535 115.905 702.988 88.0974 653.038 104.218C605.896 119.437 563.872 150.159 521.366 182.308" stroke="url(#paint84_linear_12_142)" stroke-width="0.837254" stroke-miterlimit="10"/>
<path d="M2078.94 74.2945C2036.33 85.1103 1982.09 90.9636 1933.37 113.303C1883.42 136.415 1832.49 162.915 1778.94 182.433C1701.53 210.964 1618.52 228.15 1540.73 216.633C1468.7 205.969 1402.79 172.829 1328.76 153.271C1287.03 142.238 1245.02 135.041 1202.33 134.399C1117.94 132.997 1034.02 157.992 949.209 167.313C887.752 174.083 838.921 164.189 788.39 138.466C744.874 116.307 698.759 88.7939 649.344 106.293C602.87 122.752 561.96 154.431 519.935 186.565" stroke="url(#paint85_linear_12_142)" stroke-width="0.837254" stroke-miterlimit="10"/>
<path d="M2080.25 69.4566C2036.22 82.4148 1981.18 89.5073 1931.88 113.03C1881.29 137.364 1829.64 164.545 1775.16 184.349C1697.41 212.899 1613.65 229.277 1535.56 215.99C1463.52 203.731 1398.2 168.353 1324.13 148.791C1282.55 137.807 1240.51 131.393 1197.94 131.194C1113.88 130.682 1030.38 155.114 945.941 164.345C884.893 171.034 835.05 162.204 783.936 137.677C740.212 116.699 694.526 89.4734 645.645 108.36C599.831 126.058 560.036 158.699 518.497 190.817" stroke="url(#paint86_linear_12_142)" stroke-width="0.837254" stroke-miterlimit="10"/>
<path d="M2081.54 64.619C2036.11 79.7239 1980.27 88.0555 1930.39 112.758C1879.15 138.309 1826.79 166.181 1771.38 186.265C1693.29 214.834 1608.77 230.412 1530.4 215.348C1458.34 201.498 1393.61 163.873 1319.49 144.311C1278.07 133.372 1236 127.741 1193.56 127.99C1109.82 128.368 1026.74 152.24 942.677 161.382C882.039 167.989 831.188 160.211 779.486 136.897C735.559 117.088 690.297 90.1615 641.951 110.431C596.805 129.36 558.125 162.967 517.071 195.07" stroke="url(#paint87_linear_12_142)" stroke-width="0.837254" stroke-miterlimit="10"/>
<path d="M2082.85 59.7811C2036 77.0284 1979.36 86.5992 1928.9 112.485C1877.02 139.254 1823.94 167.812 1767.6 188.177C1689.16 216.76 1603.9 231.551 1525.24 214.701C1453.16 199.265 1389.02 159.392 1314.86 139.831C1273.58 128.938 1231.48 124.09 1189.18 124.785C1105.75 126.049 1023.1 149.367 939.404 158.414C879.176 164.94 827.318 158.205 775.023 136.113C730.893 117.465 686.052 90.8369 638.245 112.502C593.754 132.659 556.2 167.234 515.624 199.327" stroke="url(#paint88_linear_12_142)" stroke-width="0.837254" stroke-miterlimit="10"/>
<path d="M2084.14 54.9476C2035.88 74.3416 1978.45 85.1516 1927.4 112.217C1874.89 140.203 1821.08 169.451 1763.81 190.098C1685.03 218.699 1599.01 232.699 1520.07 214.067C1447.97 197.048 1384.43 154.921 1310.22 135.359C1269.1 124.515 1226.97 120.45 1184.79 121.593C1101.69 123.747 1019.45 146.502 936.136 155.464C876.318 161.907 823.456 156.208 770.569 135.345C726.236 117.853 681.81 91.5292 634.551 114.585C590.715 135.969 554.285 171.519 514.194 203.592" stroke="url(#paint89_linear_12_142)" stroke-width="0.837254" stroke-miterlimit="10"/>
<path d="M2085.44 50.1097C2035.77 71.6461 1977.54 83.6953 1925.91 111.944C1872.76 141.147 1818.23 171.082 1760.03 192.01C1680.91 220.63 1594.13 233.847 1514.91 213.42C1442.78 194.823 1379.83 150.44 1305.58 130.875C1264.61 120.076 1222.45 116.794 1180.41 118.385C1097.62 121.429 1015.81 143.624 932.863 152.496C873.455 158.858 819.586 154.181 766.111 134.556C721.574 118.213 677.56 92.1963 630.848 116.652C587.664 139.259 552.364 175.782 512.755 207.84" stroke="url(#paint90_linear_12_142)" stroke-width="0.837254" stroke-miterlimit="10"/>
<path d="M2086.74 45.2718C2035.65 68.9549 1976.62 82.2432 1924.42 111.667C1870.63 142.088 1815.38 172.713 1756.24 193.922C1676.78 222.561 1589.24 234.994 1509.74 212.773C1437.58 192.602 1375.24 145.956 1300.94 126.391C1260.13 115.637 1217.93 113.143 1176.02 115.176C1093.56 119.11 1012.17 140.742 929.59 149.524C870.592 155.809 815.719 152.141 761.652 133.768C716.908 118.564 673.306 92.8591 627.146 118.714C584.609 142.545 550.44 180.042 511.316 212.089" stroke="url(#paint91_linear_12_142)" stroke-width="0.837254" stroke-miterlimit="10"/>
<path d="M2088.04 40.4339C2035.54 66.2594 1975.71 80.787 1922.93 111.395C1868.49 143.033 1812.53 174.348 1752.46 195.839C1672.66 224.496 1584.34 236.155 1504.58 212.131C1432.39 190.39 1370.65 141.48 1296.31 121.915C1255.65 111.211 1213.43 109.495 1171.64 111.975C1089.49 116.799 1008.53 137.872 926.322 146.565C867.733 152.768 811.853 150.106 757.194 132.991C712.247 118.919 669.048 93.5304 623.448 120.793C581.553 145.843 548.524 184.322 509.882 216.349" stroke="url(#paint92_linear_12_142)" stroke-width="0.837254" stroke-miterlimit="10"/>
<path d="M2089.34 35.6007C2035.43 63.5728 1974.81 79.3395 1921.44 111.127C1866.36 143.986 1809.68 175.984 1748.67 197.756C1668.53 226.431 1579.39 237.475 1499.41 211.493C1427.14 188.325 1366.05 137.008 1291.68 117.439C1251.17 106.781 1208.92 105.852 1167.26 108.78C1085.43 114.494 1004.9 135.008 923.058 143.606C864.879 149.727 807.991 148.055 752.744 132.216C707.589 119.266 664.79 94.2021 619.754 122.873C578.498 149.137 546.609 188.598 508.452 220.615" stroke="url(#paint93_linear_12_142)" stroke-width="0.837254" stroke-miterlimit="10"/>
<path d="M2090.64 30.7621C2035.32 60.8809 1973.89 77.8826 1919.94 110.853C1864.22 144.93 1806.82 177.618 1744.89 199.671C1664.41 228.365 1574.52 238.563 1494.25 210.849C1421.95 186.049 1361.46 132.527 1287.04 112.958C1246.68 102.345 1204.4 102.199 1162.88 105.574C1081.37 112.178 1001.26 132.129 919.79 140.642C862.021 146.681 804.12 145.994 748.29 131.435C702.923 119.604 660.486 94.8101 616.056 124.943C575.396 152.372 544.693 192.865 507.017 224.867" stroke="url(#paint94_linear_12_142)" stroke-width="0.837254" stroke-miterlimit="10"/>
<path d="M2091.94 25.9247C2035.21 58.1859 1972.98 76.431 1918.45 110.581C1862.1 145.876 1803.98 179.249 1741.11 201.588C1660.29 230.3 1569.64 239.657 1489.09 210.207C1416.77 183.77 1356.87 128.051 1282.41 108.479C1242.2 97.9149 1199.89 98.552 1158.5 102.37C1077.31 109.864 997.62 129.256 916.525 137.675C859.166 143.632 800.253 143.917 743.836 130.646C698.257 119.926 656.253 95.5194 612.357 127.01C572.362 155.704 542.773 197.133 505.583 229.115" stroke="url(#paint95_linear_12_142)" stroke-width="0.837254" stroke-miterlimit="10"/>
<defs>
<linearGradient id="paint0_linear_12_142" x1="1086.24" y1="69.4804" x2="1088.31" y2="461.094" gradientUnits="userSpaceOnUse">
<stop stop-color="#4AD7D1"/>
<stop offset="1" stop-color="#FE4A49" stop-opacity="0"/>
</linearGradient>
<linearGradient id="paint1_linear_12_142" x1="1086.76" y1="80.983" x2="1088.7" y2="449.722" gradientUnits="userSpaceOnUse">
<stop stop-color="#4AD7D1"/>
<stop offset="1" stop-color="#FE4A49" stop-opacity="0"/>
</linearGradient>
<linearGradient id="paint2_linear_12_142" x1="1087.48" y1="92.354" x2="1089.3" y2="438.348" gradientUnits="userSpaceOnUse">
<stop stop-color="#4AD7D1"/>
<stop offset="1" stop-color="#FE4A49" stop-opacity="0"/>
</linearGradient>
<linearGradient id="paint3_linear_12_142" x1="1088.4" y1="103.567" x2="1090.12" y2="429.138" gradientUnits="userSpaceOnUse">
<stop stop-color="#4AD7D1"/>
<stop offset="1" stop-color="#FE4A49" stop-opacity="0"/>
</linearGradient>
<linearGradient id="paint4_linear_12_142" x1="1089.49" y1="114.598" x2="1091.16" y2="433.126" gradientUnits="userSpaceOnUse">
<stop stop-color="#4AD7D1"/>
<stop offset="1" stop-color="#FE4A49" stop-opacity="0"/>
</linearGradient>
<linearGradient id="paint5_linear_12_142" x1="1090.71" y1="125.458" x2="1092.35" y2="437.11" gradientUnits="userSpaceOnUse">
<stop stop-color="#4AD7D1"/>
<stop offset="1" stop-color="#FE4A49" stop-opacity="0"/>
</linearGradient>
<linearGradient id="paint6_linear_12_142" x1="1092.04" y1="136.053" x2="1093.65" y2="441.097" gradientUnits="userSpaceOnUse">
<stop stop-color="#4AD7D1"/>
<stop offset="1" stop-color="#FE4A49" stop-opacity="0"/>
</linearGradient>
<linearGradient id="paint7_linear_12_142" x1="1093.47" y1="146.361" x2="1095.05" y2="445.088" gradientUnits="userSpaceOnUse">
<stop stop-color="#4AD7D1"/>
<stop offset="1" stop-color="#FE4A49" stop-opacity="0"/>
</linearGradient>
<linearGradient id="paint8_linear_12_142" x1="1095" y1="156.323" x2="1096.54" y2="449.065" gradientUnits="userSpaceOnUse">
<stop stop-color="#4AD7D1"/>
<stop offset="1" stop-color="#FE4A49" stop-opacity="0"/>
</linearGradient>
<linearGradient id="paint9_linear_12_142" x1="1096.6" y1="165.926" x2="1098.11" y2="453.051" gradientUnits="userSpaceOnUse">
<stop stop-color="#4AD7D1"/>
<stop offset="1" stop-color="#FE4A49" stop-opacity="0"/>
</linearGradient>
<linearGradient id="paint10_linear_12_142" x1="1098.26" y1="175.087" x2="1099.74" y2="457.027" gradientUnits="userSpaceOnUse">
<stop stop-color="#4AD7D1"/>
<stop offset="1" stop-color="#FE4A49" stop-opacity="0"/>
</linearGradient>
<linearGradient id="paint11_linear_12_142" x1="1099.99" y1="183.769" x2="1101.45" y2="461.02" gradientUnits="userSpaceOnUse">
<stop stop-color="#4AD7D1"/>
<stop offset="1" stop-color="#FE4A49" stop-opacity="0"/>
</linearGradient>
<linearGradient id="paint12_linear_12_142" x1="1101.74" y1="191.81" x2="1103.18" y2="465" gradientUnits="userSpaceOnUse">
<stop stop-color="#4AD7D1"/>
<stop offset="1" stop-color="#FE4A49" stop-opacity="0"/>
</linearGradient>
<linearGradient id="paint13_linear_12_142" x1="1103.48" y1="198.696" x2="1104.9" y2="468.981" gradientUnits="userSpaceOnUse">
<stop stop-color="#4AD7D1"/>
<stop offset="1" stop-color="#FE4A49" stop-opacity="0"/>
</linearGradient>
<linearGradient id="paint14_linear_12_142" x1="1105.22" y1="203.971" x2="1106.64" y2="472.957" gradientUnits="userSpaceOnUse">
<stop stop-color="#4AD7D1"/>
<stop offset="1" stop-color="#FE4A49" stop-opacity="0"/>
</linearGradient>
<linearGradient id="paint15_linear_12_142" x1="1106.94" y1="207.408" x2="1108.36" y2="476.946" gradientUnits="userSpaceOnUse">
<stop stop-color="#4AD7D1"/>
<stop offset="1" stop-color="#FE4A49" stop-opacity="0"/>
</linearGradient>
<linearGradient id="paint16_linear_12_142" x1="1108.66" y1="208.978" x2="1110.09" y2="480.932" gradientUnits="userSpaceOnUse">
<stop stop-color="#4AD7D1"/>
<stop offset="1" stop-color="#FE4A49" stop-opacity="0"/>
</linearGradient>
<linearGradient id="paint17_linear_12_142" x1="1110.37" y1="208.875" x2="1111.82" y2="484.908" gradientUnits="userSpaceOnUse">
<stop stop-color="#4AD7D1"/>
<stop offset="1" stop-color="#FE4A49" stop-opacity="0"/>
</linearGradient>
<linearGradient id="paint18_linear_12_142" x1="1112.07" y1="207.456" x2="1113.55" y2="488.896" gradientUnits="userSpaceOnUse">
<stop stop-color="#4AD7D1"/>
<stop offset="1" stop-color="#FE4A49" stop-opacity="0"/>
</linearGradient>
<linearGradient id="paint19_linear_12_142" x1="1113.77" y1="204.989" x2="1115.28" y2="492.881" gradientUnits="userSpaceOnUse">
<stop stop-color="#4AD7D1"/>
<stop offset="1" stop-color="#FE4A49" stop-opacity="0"/>
</linearGradient>
<linearGradient id="paint20_linear_12_142" x1="1115.46" y1="201.681" x2="1117.01" y2="496.861" gradientUnits="userSpaceOnUse">
<stop stop-color="#4AD7D1"/>
<stop offset="1" stop-color="#FE4A49" stop-opacity="0"/>
</linearGradient>
<linearGradient id="paint21_linear_12_142" x1="1117.14" y1="197.66" x2="1118.74" y2="500.85" gradientUnits="userSpaceOnUse">
<stop stop-color="#4AD7D1"/>
<stop offset="1" stop-color="#FE4A49" stop-opacity="0"/>
</linearGradient>
<linearGradient id="paint22_linear_12_142" x1="1118.83" y1="193.054" x2="1120.47" y2="504.826" gradientUnits="userSpaceOnUse">
<stop stop-color="#4AD7D1"/>
<stop offset="1" stop-color="#FE4A49" stop-opacity="0"/>
</linearGradient>
<linearGradient id="paint23_linear_12_142" x1="1120.51" y1="188" x2="1122.2" y2="508.82" gradientUnits="userSpaceOnUse">
<stop stop-color="#4AD7D1"/>
<stop offset="1" stop-color="#FE4A49" stop-opacity="0"/>
</linearGradient>
<linearGradient id="paint24_linear_12_142" x1="1122.19" y1="182.564" x2="1123.93" y2="512.787" gradientUnits="userSpaceOnUse">
<stop stop-color="#4AD7D1"/>
<stop offset="1" stop-color="#FE4A49" stop-opacity="0"/>
</linearGradient>
<linearGradient id="paint25_linear_12_142" x1="1123.87" y1="176.655" x2="1125.66" y2="516.785" gradientUnits="userSpaceOnUse">
<stop stop-color="#4AD7D1"/>
<stop offset="1" stop-color="#FE4A49" stop-opacity="0"/>
</linearGradient>
<linearGradient id="paint26_linear_12_142" x1="1125.51" y1="165.276" x2="1127.38" y2="520.769" gradientUnits="userSpaceOnUse">
<stop stop-color="#4AD7D1"/>
<stop offset="1" stop-color="#FE4A49" stop-opacity="0"/>
</linearGradient>
<linearGradient id="paint27_linear_12_142" x1="1127.16" y1="153.898" x2="1129.11" y2="524.742" gradientUnits="userSpaceOnUse">
<stop stop-color="#4AD7D1"/>
<stop offset="1" stop-color="#FE4A49" stop-opacity="0"/>
</linearGradient>
<linearGradient id="paint28_linear_12_142" x1="1128.81" y1="142.519" x2="1130.85" y2="528.726" gradientUnits="userSpaceOnUse">
<stop stop-color="#4AD7D1"/>
<stop offset="1" stop-color="#FE4A49" stop-opacity="0"/>
</linearGradient>
<linearGradient id="paint29_linear_12_142" x1="1130.46" y1="131.14" x2="1132.58" y2="532.711" gradientUnits="userSpaceOnUse">
<stop stop-color="#4AD7D1"/>
<stop offset="1" stop-color="#FE4A49" stop-opacity="0"/>
</linearGradient>
<linearGradient id="paint30_linear_12_142" x1="1132.11" y1="119.761" x2="1134.31" y2="536.695" gradientUnits="userSpaceOnUse">
<stop stop-color="#4AD7D1"/>
<stop offset="1" stop-color="#FE4A49" stop-opacity="0"/>
</linearGradient>
<linearGradient id="paint31_linear_12_142" x1="1133.76" y1="108.383" x2="1136.03" y2="540.68" gradientUnits="userSpaceOnUse">
<stop stop-color="#4AD7D1"/>
<stop offset="1" stop-color="#FE4A49" stop-opacity="0"/>
</linearGradient>
<linearGradient id="paint32_linear_12_142" x1="1098.3" y1="7.07514" x2="1100.3" y2="386.083" gradientUnits="userSpaceOnUse">
<stop stop-color="#4AD7D1"/>
<stop offset="1" stop-color="#FE4A49" stop-opacity="0"/>
</linearGradient>
<linearGradient id="paint33_linear_12_142" x1="1103.96" y1="16.1831" x2="1105.87" y2="378.17" gradientUnits="userSpaceOnUse">
<stop stop-color="#4AD7D1"/>
<stop offset="1" stop-color="#FE4A49" stop-opacity="0"/>
</linearGradient>
<linearGradient id="paint34_linear_12_142" x1="1109.62" y1="25.3056" x2="1111.43" y2="370.279" gradientUnits="userSpaceOnUse">
<stop stop-color="#4AD7D1"/>
<stop offset="1" stop-color="#FE4A49" stop-opacity="0"/>
</linearGradient>
<linearGradient id="paint35_linear_12_142" x1="1115.28" y1="34.4074" x2="1117.01" y2="362.388" gradientUnits="userSpaceOnUse">
<stop stop-color="#4AD7D1"/>
<stop offset="1" stop-color="#FE4A49" stop-opacity="0"/>
</linearGradient>
<linearGradient id="paint36_linear_12_142" x1="1120.93" y1="43.4951" x2="1122.57" y2="354.48" gradientUnits="userSpaceOnUse">
<stop stop-color="#4AD7D1"/>
<stop offset="1" stop-color="#FE4A49" stop-opacity="0"/>
</linearGradient>
<linearGradient id="paint37_linear_12_142" x1="1126.59" y1="52.5908" x2="1128.15" y2="349.184" gradientUnits="userSpaceOnUse">
<stop stop-color="#4AD7D1"/>
<stop offset="1" stop-color="#FE4A49" stop-opacity="0"/>
</linearGradient>
<linearGradient id="paint38_linear_12_142" x1="1132.25" y1="61.6811" x2="1133.73" y2="344.32" gradientUnits="userSpaceOnUse">
<stop stop-color="#4AD7D1"/>
<stop offset="1" stop-color="#FE4A49" stop-opacity="0"/>
</linearGradient>
<linearGradient id="paint39_linear_12_142" x1="1137.9" y1="68.8716" x2="1139.32" y2="339.455" gradientUnits="userSpaceOnUse">
<stop stop-color="#4AD7D1"/>
<stop offset="1" stop-color="#FE4A49" stop-opacity="0"/>
</linearGradient>
<linearGradient id="paint40_linear_12_142" x1="1143.53" y1="72.8518" x2="1144.9" y2="334.59" gradientUnits="userSpaceOnUse">
<stop stop-color="#4AD7D1"/>
<stop offset="1" stop-color="#FE4A49" stop-opacity="0"/>
</linearGradient>
<linearGradient id="paint41_linear_12_142" x1="1149.16" y1="76.7756" x2="1150.49" y2="329.725" gradientUnits="userSpaceOnUse">
<stop stop-color="#4AD7D1"/>
<stop offset="1" stop-color="#FE4A49" stop-opacity="0"/>
</linearGradient>
<linearGradient id="paint42_linear_12_142" x1="1154.79" y1="80.6374" x2="1156.07" y2="324.866" gradientUnits="userSpaceOnUse">
<stop stop-color="#4AD7D1"/>
<stop offset="1" stop-color="#FE4A49" stop-opacity="0"/>
</linearGradient>
<linearGradient id="paint43_linear_12_142" x1="1160.42" y1="84.4087" x2="1161.66" y2="320" gradientUnits="userSpaceOnUse">
<stop stop-color="#4AD7D1"/>
<stop offset="1" stop-color="#FE4A49" stop-opacity="0"/>
</linearGradient>
<linearGradient id="paint44_linear_12_142" x1="1166.04" y1="88.0859" x2="1167.24" y2="315.137" gradientUnits="userSpaceOnUse">
<stop stop-color="#4AD7D1"/>
<stop offset="1" stop-color="#FE4A49" stop-opacity="0"/>
</linearGradient>
<linearGradient id="paint45_linear_12_142" x1="1171.68" y1="91.6516" x2="1172.83" y2="310.271" gradientUnits="userSpaceOnUse">
<stop stop-color="#4AD7D1"/>
<stop offset="1" stop-color="#FE4A49" stop-opacity="0"/>
</linearGradient>
<linearGradient id="paint46_linear_12_142" x1="1177.3" y1="95.0901" x2="1178.41" y2="305.407" gradientUnits="userSpaceOnUse">
<stop stop-color="#4AD7D1"/>
<stop offset="1" stop-color="#FE4A49" stop-opacity="0"/>
</linearGradient>
<linearGradient id="paint47_linear_12_142" x1="1182.93" y1="98.3726" x2="1184" y2="300.542" gradientUnits="userSpaceOnUse">
<stop stop-color="#4AD7D1"/>
<stop offset="1" stop-color="#FE4A49" stop-opacity="0"/>
</linearGradient>
<linearGradient id="paint48_linear_12_142" x1="1188.55" y1="101.475" x2="1189.58" y2="295.677" gradientUnits="userSpaceOnUse">
<stop stop-color="#4AD7D1"/>
<stop offset="1" stop-color="#FE4A49" stop-opacity="0"/>
</linearGradient>
<linearGradient id="paint49_linear_12_142" x1="1194.18" y1="104.354" x2="1195.16" y2="290.813" gradientUnits="userSpaceOnUse">
<stop stop-color="#4AD7D1"/>
<stop offset="1" stop-color="#FE4A49" stop-opacity="0"/>
</linearGradient>
<linearGradient id="paint50_linear_12_142" x1="1199.81" y1="106.994" x2="1200.75" y2="285.953" gradientUnits="userSpaceOnUse">
<stop stop-color="#4AD7D1"/>
<stop offset="1" stop-color="#FE4A49" stop-opacity="0"/>
</linearGradient>
<linearGradient id="paint51_linear_12_142" x1="1205.43" y1="109.32" x2="1206.33" y2="281.088" gradientUnits="userSpaceOnUse">
<stop stop-color="#4AD7D1"/>
<stop offset="1" stop-color="#FE4A49" stop-opacity="0"/>
</linearGradient>
<linearGradient id="paint52_linear_12_142" x1="1211.05" y1="111.297" x2="1211.91" y2="276.223" gradientUnits="userSpaceOnUse">
<stop stop-color="#4AD7D1"/>
<stop offset="1" stop-color="#FE4A49" stop-opacity="0"/>
</linearGradient>
<linearGradient id="paint53_linear_12_142" x1="1216.66" y1="112.871" x2="1217.5" y2="271.358" gradientUnits="userSpaceOnUse">
<stop stop-color="#4AD7D1"/>
<stop offset="1" stop-color="#FE4A49" stop-opacity="0"/>
</linearGradient>
<linearGradient id="paint54_linear_12_142" x1="1222.28" y1="114.008" x2="1223.09" y2="266.494" gradientUnits="userSpaceOnUse">
<stop stop-color="#4AD7D1"/>
<stop offset="1" stop-color="#FE4A49" stop-opacity="0"/>
</linearGradient>
<linearGradient id="paint55_linear_12_142" x1="1227.89" y1="114.67" x2="1228.67" y2="261.629" gradientUnits="userSpaceOnUse">
<stop stop-color="#4AD7D1"/>
<stop offset="1" stop-color="#FE4A49" stop-opacity="0"/>
</linearGradient>
<linearGradient id="paint56_linear_12_142" x1="1233.5" y1="114.865" x2="1234.25" y2="256.765" gradientUnits="userSpaceOnUse">
<stop stop-color="#4AD7D1"/>
<stop offset="1" stop-color="#FE4A49" stop-opacity="0"/>
</linearGradient>
<linearGradient id="paint57_linear_12_142" x1="1239.11" y1="114.619" x2="1239.84" y2="252.996" gradientUnits="userSpaceOnUse">
<stop stop-color="#4AD7D1"/>
<stop offset="1" stop-color="#FE4A49" stop-opacity="0"/>
</linearGradient>
<linearGradient id="paint58_linear_12_142" x1="1244.72" y1="113.974" x2="1245.49" y2="259.849" gradientUnits="userSpaceOnUse">
<stop stop-color="#4AD7D1"/>
<stop offset="1" stop-color="#FE4A49" stop-opacity="0"/>
</linearGradient>
<linearGradient id="paint59_linear_12_142" x1="1250.33" y1="112.979" x2="1251.14" y2="266.825" gradientUnits="userSpaceOnUse">
<stop stop-color="#4AD7D1"/>
<stop offset="1" stop-color="#FE4A49" stop-opacity="0"/>
</linearGradient>
<linearGradient id="paint60_linear_12_142" x1="1255.93" y1="111.697" x2="1256.78" y2="274.176" gradientUnits="userSpaceOnUse">
<stop stop-color="#4AD7D1"/>
<stop offset="1" stop-color="#FE4A49" stop-opacity="0"/>
</linearGradient>
<linearGradient id="paint61_linear_12_142" x1="1261.53" y1="110.134" x2="1262.43" y2="281.903" gradientUnits="userSpaceOnUse">
<stop stop-color="#4AD7D1"/>
<stop offset="1" stop-color="#FE4A49" stop-opacity="0"/>
</linearGradient>
<linearGradient id="paint62_linear_12_142" x1="1267.13" y1="108.317" x2="1268.09" y2="289.932" gradientUnits="userSpaceOnUse">
<stop stop-color="#4AD7D1"/>
<stop offset="1" stop-color="#FE4A49" stop-opacity="0"/>
</linearGradient>
<linearGradient id="paint63_linear_12_142" x1="1272.73" y1="106.217" x2="1273.74" y2="298.19" gradientUnits="userSpaceOnUse">
<stop stop-color="#4AD7D1"/>
<stop offset="1" stop-color="#FE4A49" stop-opacity="0"/>
</linearGradient>
<linearGradient id="paint64_linear_12_142" x1="1300.44" y1="55.8805" x2="1301.5" y2="258.005" gradientUnits="userSpaceOnUse">
<stop stop-color="#4AD7D1"/>
<stop offset="1" stop-color="#FE4A49" stop-opacity="0"/>
</linearGradient>
<linearGradient id="paint65_linear_12_142" x1="1300.38" y1="58.7465" x2="1301.41" y2="254.244" gradientUnits="userSpaceOnUse">
<stop stop-color="#4AD7D1"/>
<stop offset="1" stop-color="#FE4A49" stop-opacity="0"/>
</linearGradient>
<linearGradient id="paint66_linear_12_142" x1="1300.34" y1="61.5129" x2="1301.33" y2="250.527" gradientUnits="userSpaceOnUse">
<stop stop-color="#4AD7D1"/>
<stop offset="1" stop-color="#FE4A49" stop-opacity="0"/>
</linearGradient>
<linearGradient id="paint67_linear_12_142" x1="1300.28" y1="64.257" x2="1301.24" y2="246.952" gradientUnits="userSpaceOnUse">
<stop stop-color="#4AD7D1"/>
<stop offset="1" stop-color="#FE4A49" stop-opacity="0"/>
</linearGradient>
<linearGradient id="paint68_linear_12_142" x1="1300.23" y1="66.8549" x2="1301.16" y2="243.52" gradientUnits="userSpaceOnUse">
<stop stop-color="#4AD7D1"/>
<stop offset="1" stop-color="#FE4A49" stop-opacity="0"/>
</linearGradient>
<linearGradient id="paint69_linear_12_142" x1="1300.17" y1="69.3629" x2="1301.07" y2="240.263" gradientUnits="userSpaceOnUse">
<stop stop-color="#4AD7D1"/>
<stop offset="1" stop-color="#FE4A49" stop-opacity="0"/>
</linearGradient>
<linearGradient id="paint70_linear_12_142" x1="1300.13" y1="71.7543" x2="1301" y2="237.199" gradientUnits="userSpaceOnUse">
<stop stop-color="#4AD7D1"/>
<stop offset="1" stop-color="#FE4A49" stop-opacity="0"/>
</linearGradient>
<linearGradient id="paint71_linear_12_142" x1="1300.07" y1="74.0202" x2="1300.91" y2="234.364" gradientUnits="userSpaceOnUse">
<stop stop-color="#4AD7D1"/>
<stop offset="1" stop-color="#FE4A49" stop-opacity="0"/>
</linearGradient>
<linearGradient id="paint72_linear_12_142" x1="1300.01" y1="76.1684" x2="1300.83" y2="231.789" gradientUnits="userSpaceOnUse">
<stop stop-color="#4AD7D1"/>
<stop offset="1" stop-color="#FE4A49" stop-opacity="0"/>
</linearGradient>
<linearGradient id="paint73_linear_12_142" x1="1299.96" y1="78.2052" x2="1300.75" y2="229.507" gradientUnits="userSpaceOnUse">
<stop stop-color="#4AD7D1"/>
<stop offset="1" stop-color="#FE4A49" stop-opacity="0"/>
</linearGradient>
<linearGradient id="paint74_linear_12_142" x1="1299.9" y1="80.1654" x2="1300.68" y2="227.531" gradientUnits="userSpaceOnUse">
<stop stop-color="#4AD7D1"/>
<stop offset="1" stop-color="#FE4A49" stop-opacity="0"/>
</linearGradient>
<linearGradient id="paint75_linear_12_142" x1="1299.85" y1="82.039" x2="1300.6" y2="225.862" gradientUnits="userSpaceOnUse">
<stop stop-color="#4AD7D1"/>
<stop offset="1" stop-color="#FE4A49" stop-opacity="0"/>
</linearGradient>
<linearGradient id="paint76_linear_12_142" x1="1299.79" y1="83.85" x2="1300.53" y2="224.498" gradientUnits="userSpaceOnUse">
<stop stop-color="#4AD7D1"/>
<stop offset="1" stop-color="#FE4A49" stop-opacity="0"/>
</linearGradient>
<linearGradient id="paint77_linear_12_142" x1="1299.73" y1="85.5881" x2="1300.46" y2="223.416" gradientUnits="userSpaceOnUse">
<stop stop-color="#4AD7D1"/>
<stop offset="1" stop-color="#FE4A49" stop-opacity="0"/>
</linearGradient>
<linearGradient id="paint78_linear_12_142" x1="1299.67" y1="87.2709" x2="1300.39" y2="222.59" gradientUnits="userSpaceOnUse">
<stop stop-color="#4AD7D1"/>
<stop offset="1" stop-color="#FE4A49" stop-opacity="0"/>
</linearGradient>
<linearGradient id="paint79_linear_12_142" x1="1299.62" y1="88.8942" x2="1300.32" y2="221.983" gradientUnits="userSpaceOnUse">
<stop stop-color="#4AD7D1"/>
<stop offset="1" stop-color="#FE4A49" stop-opacity="0"/>
</linearGradient>
<linearGradient id="paint80_linear_12_142" x1="1299.56" y1="90.4572" x2="1300.25" y2="221.557" gradientUnits="userSpaceOnUse">
<stop stop-color="#4AD7D1"/>
<stop offset="1" stop-color="#FE4A49" stop-opacity="0"/>
</linearGradient>
<linearGradient id="paint81_linear_12_142" x1="1299.5" y1="91.9628" x2="1300.18" y2="221.312" gradientUnits="userSpaceOnUse">
<stop stop-color="#4AD7D1"/>
<stop offset="1" stop-color="#FE4A49" stop-opacity="0"/>
</linearGradient>
<linearGradient id="paint82_linear_12_142" x1="1299.43" y1="92.8874" x2="1300.11" y2="221.222" gradientUnits="userSpaceOnUse">
<stop stop-color="#4AD7D1"/>
<stop offset="1" stop-color="#FE4A49" stop-opacity="0"/>
</linearGradient>
<linearGradient id="paint83_linear_12_142" x1="1299.35" y1="88.0568" x2="1300.05" y2="221.284" gradientUnits="userSpaceOnUse">
<stop stop-color="#4AD7D1"/>
<stop offset="1" stop-color="#FE4A49" stop-opacity="0"/>
</linearGradient>
<linearGradient id="paint84_linear_12_142" x1="1299.26" y1="83.2255" x2="1299.98" y2="221.478" gradientUnits="userSpaceOnUse">
<stop stop-color="#4AD7D1"/>
<stop offset="1" stop-color="#FE4A49" stop-opacity="0"/>
</linearGradient>
<linearGradient id="paint85_linear_12_142" x1="1299.17" y1="78.3993" x2="1299.92" y2="221.793" gradientUnits="userSpaceOnUse">
<stop stop-color="#4AD7D1"/>
<stop offset="1" stop-color="#FE4A49" stop-opacity="0"/>
</linearGradient>
<linearGradient id="paint86_linear_12_142" x1="1299.07" y1="73.5688" x2="1299.86" y2="222.22" gradientUnits="userSpaceOnUse">
<stop stop-color="#4AD7D1"/>
<stop offset="1" stop-color="#FE4A49" stop-opacity="0"/>
</linearGradient>
<linearGradient id="paint87_linear_12_142" x1="1298.99" y1="68.7385" x2="1299.8" y2="222.751" gradientUnits="userSpaceOnUse">
<stop stop-color="#4AD7D1"/>
<stop offset="1" stop-color="#FE4A49" stop-opacity="0"/>
</linearGradient>
<linearGradient id="paint88_linear_12_142" x1="1298.89" y1="63.9079" x2="1299.73" y2="223.373" gradientUnits="userSpaceOnUse">
<stop stop-color="#4AD7D1"/>
<stop offset="1" stop-color="#FE4A49" stop-opacity="0"/>
</linearGradient>
<linearGradient id="paint89_linear_12_142" x1="1298.8" y1="59.0817" x2="1299.67" y2="224.088" gradientUnits="userSpaceOnUse">
<stop stop-color="#4AD7D1"/>
<stop offset="1" stop-color="#FE4A49" stop-opacity="0"/>
</linearGradient>
<linearGradient id="paint90_linear_12_142" x1="1298.71" y1="54.2511" x2="1299.6" y2="224.874" gradientUnits="userSpaceOnUse">
<stop stop-color="#4AD7D1"/>
<stop offset="1" stop-color="#FE4A49" stop-opacity="0"/>
</linearGradient>
<linearGradient id="paint91_linear_12_142" x1="1298.61" y1="49.4206" x2="1299.54" y2="225.73" gradientUnits="userSpaceOnUse">
<stop stop-color="#4AD7D1"/>
<stop offset="1" stop-color="#FE4A49" stop-opacity="0"/>
</linearGradient>
<linearGradient id="paint92_linear_12_142" x1="1298.52" y1="44.59" x2="1299.48" y2="226.658" gradientUnits="userSpaceOnUse">
<stop stop-color="#4AD7D1"/>
<stop offset="1" stop-color="#FE4A49" stop-opacity="0"/>
</linearGradient>
<linearGradient id="paint93_linear_12_142" x1="1298.43" y1="39.7641" x2="1299.42" y2="227.715" gradientUnits="userSpaceOnUse">
<stop stop-color="#4AD7D1"/>
<stop offset="1" stop-color="#FE4A49" stop-opacity="0"/>
</linearGradient>
<linearGradient id="paint94_linear_12_142" x1="1298.34" y1="34.9328" x2="1299.36" y2="228.724" gradientUnits="userSpaceOnUse">
<stop stop-color="#4AD7D1"/>
<stop offset="1" stop-color="#FE4A49" stop-opacity="0"/>
</linearGradient>
<linearGradient id="paint95_linear_12_142" x1="1298.25" y1="30.1027" x2="1299.3" y2="229.785" gradientUnits="userSpaceOnUse">
<stop stop-color="#4AD7D1"/>
<stop offset="1" stop-color="#FE4A49" stop-opacity="0"/>
</linearGradient>
</defs>
</svg>
